<svg width="138" height="16" viewBox="0 0 138 16" fill="none" xmlns="http://www.w3.org/2000/svg">
<mask id="path-1-outside-1" maskUnits="userSpaceOnUse" x="-0.588867" y="0.268555" width="139" height="16" fill="black">
<rect fill="white" x="-0.588867" y="0.268555" width="139" height="16"/>
<path fill-rule="evenodd" clip-rule="evenodd" d="M63.4993 13.3284C61.792 12.284 60.7676 10.7837 60.7676 8.24482C60.7676 5.80399 61.9156 4.14792 63.5229 3.16121C65.3479 2.036 68.5212 1.26855 72.8424 1.26855C77.1637 1.26855 80.3428 2.036 82.1738 3.16121C83.781 4.14792 84.929 5.80399 84.929 8.24482C84.929 10.7895 83.9046 12.284 82.1973 13.3284C80.3664 14.4536 77.2697 15.2211 72.8483 15.2211C68.427 15.2211 65.3244 14.4536 63.4993 13.3284ZM81.9147 12.9534C83.4631 12.007 84.4463 10.5299 84.4463 8.24482C84.4463 6.0752 83.4631 4.49991 81.9324 3.55358C80.1839 2.46877 77.1872 1.70133 72.8424 1.70133C68.4976 1.70133 65.5069 2.46877 63.7525 3.55358C62.2218 4.49991 61.2386 6.0752 61.2386 8.24482C61.2386 10.5299 62.2218 12.007 63.7701 12.9534C65.501 14.0151 68.633 14.7883 72.8365 14.7883C77.0401 14.7883 80.1839 14.0151 81.9147 12.9534ZM15.7475 1.54552V9.34693C15.7475 12.3013 18.8854 14.7825 26.2799 14.7825C33.6743 14.7825 36.8122 12.3013 36.8122 9.34693V1.54552H37.295V9.40464C37.295 12.5552 34.0157 15.2153 26.2799 15.2153C18.544 15.2153 15.2647 12.561 15.2647 9.40464V1.54552H15.7475ZM108.89 14.9441H109.373V1.54552H108.89V14.9441ZM136.36 2.70535C134.288 2.27258 130.167 1.70133 126.069 1.70133C121.789 1.70133 118.993 2.27258 117.586 2.82653C116.279 3.34008 115.655 4.09022 115.655 5.23274C115.655 6.23676 116.155 6.9292 117.203 7.26387C118.428 7.65625 121.407 7.83513 126.269 7.83513C130.432 7.83513 133.428 7.91591 135.095 8.29098C136.967 8.70644 137.65 9.76817 137.65 11.0665C137.65 12.6245 137.084 13.4092 135.742 14.0613C134.035 14.8864 130.614 15.2269 126.894 15.2269C121.907 15.2269 117.627 14.6152 115.555 14.142L115.637 13.7093C117.709 14.1824 121.989 14.7941 126.894 14.7941C130.673 14.7941 133.729 14.4767 135.56 13.6516C136.808 13.0976 137.167 12.2725 137.167 11.0723C137.167 9.92974 136.625 9.1219 134.936 8.72952C133.346 8.35446 130.349 8.27367 126.269 8.27367C121.465 8.27367 118.369 8.09479 117.044 7.66202C115.778 7.22925 115.172 6.47912 115.172 5.23851C115.172 3.91711 115.914 3.01118 117.386 2.43992C118.887 1.85712 121.901 1.26855 126.063 1.26855C130.208 1.26855 134.388 1.85712 136.46 2.29566L136.36 2.70535ZM96.3679 9.8201C96.3679 9.8201 96.9743 10.2182 97.8574 10.8472L103.368 14.8229L103.533 14.9441H102.762L95.6026 9.7797H89.5328V9.34693H96.5681C101.496 9.34693 102.62 7.67355 102.62 5.74051C102.62 3.77284 101.572 1.97829 96.5681 1.97829H89.5328V1.54552H96.5681C101.937 1.54552 103.103 3.53049 103.103 5.74051C103.103 7.91013 101.855 9.7797 96.5681 9.7797H96.3679V9.8201ZM50.8829 10.8472C49.9998 10.2182 49.3934 9.8201 49.3934 9.8201V9.7797H49.5936C54.8804 9.7797 56.1285 7.91013 56.1285 5.74051C56.1285 3.53049 54.9628 1.54552 49.5936 1.54552H42.5583V1.97829H49.5936C54.5978 1.97829 55.6457 3.77284 55.6457 5.74051C55.6457 7.67355 54.5212 9.34693 49.5936 9.34693H42.5583V9.7797H48.6281L55.787 14.9441H56.5582L56.3934 14.8229L50.8829 10.8472ZM0.411133 2.16294V1.54552L12.9511 14.8518V14.9499H12.4094L8.8535 11.1646H0.411133V10.7318H8.42962L2.86024 4.81726C1.75932 3.62859 0.676061 2.45145 0.411133 2.16294Z"/>
</mask>
<path fill-rule="evenodd" clip-rule="evenodd" d="M63.4993 13.3284C61.792 12.284 60.7676 10.7837 60.7676 8.24482C60.7676 5.80399 61.9156 4.14792 63.5229 3.16121C65.3479 2.036 68.5212 1.26855 72.8424 1.26855C77.1637 1.26855 80.3428 2.036 82.1738 3.16121C83.781 4.14792 84.929 5.80399 84.929 8.24482C84.929 10.7895 83.9046 12.284 82.1973 13.3284C80.3664 14.4536 77.2697 15.2211 72.8483 15.2211C68.427 15.2211 65.3244 14.4536 63.4993 13.3284ZM81.9147 12.9534C83.4631 12.007 84.4463 10.5299 84.4463 8.24482C84.4463 6.0752 83.4631 4.49991 81.9324 3.55358C80.1839 2.46877 77.1872 1.70133 72.8424 1.70133C68.4976 1.70133 65.5069 2.46877 63.7525 3.55358C62.2218 4.49991 61.2386 6.0752 61.2386 8.24482C61.2386 10.5299 62.2218 12.007 63.7701 12.9534C65.501 14.0151 68.633 14.7883 72.8365 14.7883C77.0401 14.7883 80.1839 14.0151 81.9147 12.9534ZM15.7475 1.54552V9.34693C15.7475 12.3013 18.8854 14.7825 26.2799 14.7825C33.6743 14.7825 36.8122 12.3013 36.8122 9.34693V1.54552H37.295V9.40464C37.295 12.5552 34.0157 15.2153 26.2799 15.2153C18.544 15.2153 15.2647 12.561 15.2647 9.40464V1.54552H15.7475ZM108.89 14.9441H109.373V1.54552H108.89V14.9441ZM136.36 2.70535C134.288 2.27258 130.167 1.70133 126.069 1.70133C121.789 1.70133 118.993 2.27258 117.586 2.82653C116.279 3.34008 115.655 4.09022 115.655 5.23274C115.655 6.23676 116.155 6.9292 117.203 7.26387C118.428 7.65625 121.407 7.83513 126.269 7.83513C130.432 7.83513 133.428 7.91591 135.095 8.29098C136.967 8.70644 137.65 9.76817 137.65 11.0665C137.65 12.6245 137.084 13.4092 135.742 14.0613C134.035 14.8864 130.614 15.2269 126.894 15.2269C121.907 15.2269 117.627 14.6152 115.555 14.142L115.637 13.7093C117.709 14.1824 121.989 14.7941 126.894 14.7941C130.673 14.7941 133.729 14.4767 135.56 13.6516C136.808 13.0976 137.167 12.2725 137.167 11.0723C137.167 9.92974 136.625 9.1219 134.936 8.72952C133.346 8.35446 130.349 8.27367 126.269 8.27367C121.465 8.27367 118.369 8.09479 117.044 7.66202C115.778 7.22925 115.172 6.47912 115.172 5.23851C115.172 3.91711 115.914 3.01118 117.386 2.43992C118.887 1.85712 121.901 1.26855 126.063 1.26855C130.208 1.26855 134.388 1.85712 136.46 2.29566L136.36 2.70535ZM96.3679 9.8201C96.3679 9.8201 96.9743 10.2182 97.8574 10.8472L103.368 14.8229L103.533 14.9441H102.762L95.6026 9.7797H89.5328V9.34693H96.5681C101.496 9.34693 102.62 7.67355 102.62 5.74051C102.62 3.77284 101.572 1.97829 96.5681 1.97829H89.5328V1.54552H96.5681C101.937 1.54552 103.103 3.53049 103.103 5.74051C103.103 7.91013 101.855 9.7797 96.5681 9.7797H96.3679V9.8201ZM50.8829 10.8472C49.9998 10.2182 49.3934 9.8201 49.3934 9.8201V9.7797H49.5936C54.8804 9.7797 56.1285 7.91013 56.1285 5.74051C56.1285 3.53049 54.9628 1.54552 49.5936 1.54552H42.5583V1.97829H49.5936C54.5978 1.97829 55.6457 3.77284 55.6457 5.74051C55.6457 7.67355 54.5212 9.34693 49.5936 9.34693H42.5583V9.7797H48.6281L55.787 14.9441H56.5582L56.3934 14.8229L50.8829 10.8472ZM0.411133 2.16294V1.54552L12.9511 14.8518V14.9499H12.4094L8.8535 11.1646H0.411133V10.7318H8.42962L2.86024 4.81726C1.75932 3.62859 0.676061 2.45145 0.411133 2.16294Z" fill="white"/>
<path d="M63.4993 13.3284L63.6567 13.0731L63.6559 13.0725L63.4993 13.3284ZM63.5229 3.16121L63.6798 3.41687L63.6803 3.41657L63.5229 3.16121ZM82.1738 3.16121L82.0167 3.4168L82.0168 3.41687L82.1738 3.16121ZM82.1973 13.3284L82.0408 13.0725L82.0402 13.0728L82.1973 13.3284ZM81.9147 12.9534L81.7583 12.6974L81.7579 12.6976L81.9147 12.9534ZM81.9324 3.55358L81.7742 3.80851L81.7746 3.80876L81.9324 3.55358ZM63.7525 3.55358L63.9102 3.80876L63.9102 3.80875L63.7525 3.55358ZM63.7701 12.9534L63.927 12.6976L63.9266 12.6974L63.7701 12.9534ZM15.7475 1.54552H16.0475V1.24552H15.7475V1.54552ZM36.8122 1.54552V1.24552H36.5122V1.54552H36.8122ZM37.295 1.54552H37.595V1.24552H37.295V1.54552ZM15.2647 1.54552V1.24552H14.9647V1.54552H15.2647ZM109.373 14.9441V15.2441H109.673V14.9441H109.373ZM108.89 14.9441H108.59V15.2441H108.89V14.9441ZM109.373 1.54552H109.673V1.24552H109.373V1.54552ZM108.89 1.54552V1.24552H108.59V1.54552H108.89ZM136.36 2.70535L136.299 2.99902L136.583 3.05831L136.652 2.77655L136.36 2.70535ZM117.586 2.82653L117.695 3.10575L117.696 3.10568L117.586 2.82653ZM117.203 7.26387L117.295 6.97818L117.294 6.97809L117.203 7.26387ZM135.095 8.29098L135.029 8.58366L135.03 8.58386L135.095 8.29098ZM135.742 14.0613L135.873 14.3314L135.873 14.3311L135.742 14.0613ZM115.555 14.142L115.26 14.0859L115.206 14.3701L115.488 14.4345L115.555 14.142ZM115.637 13.7093L115.704 13.4168L115.401 13.3476L115.342 13.6531L115.637 13.7093ZM135.56 13.6516L135.438 13.3774L135.436 13.3781L135.56 13.6516ZM134.936 8.72952L134.867 9.02151L134.868 9.02175L134.936 8.72952ZM117.044 7.66202L116.947 7.94592L116.951 7.94719L117.044 7.66202ZM117.386 2.43992L117.494 2.71959L117.494 2.71959L117.386 2.43992ZM136.46 2.29566L136.752 2.36686L136.825 2.06623L136.522 2.00216L136.46 2.29566ZM97.8574 10.8472L98.0329 10.6039L98.0314 10.6028L97.8574 10.8472ZM96.3679 9.8201H96.0679V9.98201L96.2033 10.0709L96.3679 9.8201ZM103.368 14.8229L103.546 14.5812L103.543 14.5796L103.368 14.8229ZM103.533 14.9441V15.2441H104.447L103.71 14.7024L103.533 14.9441ZM102.762 14.9441L102.586 15.1874L102.665 15.2441H102.762V14.9441ZM95.6026 9.7797L95.7781 9.5364L95.6995 9.4797H95.6026V9.7797ZM89.5328 9.7797H89.2328V10.0797H89.5328V9.7797ZM89.5328 9.34693V9.04693H89.2328V9.34693H89.5328ZM89.5328 1.97829H89.2328V2.27829H89.5328V1.97829ZM89.5328 1.54552V1.24552H89.2328V1.54552H89.5328ZM96.3679 9.7797V9.4797H96.0679V9.7797H96.3679ZM49.3934 9.8201H49.0934V9.98201L49.2287 10.0709L49.3934 9.8201ZM50.8829 10.8472L51.0584 10.6039L51.0569 10.6028L50.8829 10.8472ZM49.3934 9.7797V9.4797H49.0934V9.7797H49.3934ZM42.5583 1.54552V1.24552H42.2583V1.54552H42.5583ZM42.5583 1.97829H42.2583V2.27829H42.5583V1.97829ZM42.5583 9.34693V9.04693H42.2583V9.34693H42.5583ZM42.5583 9.7797H42.2583V10.0797H42.5583V9.7797ZM48.6281 9.7797L48.8036 9.5364L48.725 9.4797H48.6281V9.7797ZM55.787 14.9441L55.6115 15.1874L55.6901 15.2441H55.787V14.9441ZM56.5582 14.9441V15.2441H57.4729L56.7359 14.7024L56.5582 14.9441ZM56.3934 14.8229L56.5711 14.5812L56.5689 14.5796L56.3934 14.8229ZM0.411133 1.54552L0.629459 1.33976L0.111133 0.789763V1.54552H0.411133ZM0.411133 2.16294H0.111133V2.27978L0.190161 2.36584L0.411133 2.16294ZM12.9511 14.8518H13.2511V14.7327L13.1694 14.646L12.9511 14.8518ZM12.9511 14.9499V15.2499H13.2511V14.9499H12.9511ZM12.4094 14.9499L12.1908 15.1553L12.2796 15.2499H12.4094V14.9499ZM8.8535 11.1646L9.07215 10.9592L8.98329 10.8646H8.8535V11.1646ZM0.411133 11.1646H0.111133V11.4646H0.411133V11.1646ZM0.411133 10.7318V10.4318H0.111133V10.7318H0.411133ZM8.42962 10.7318V11.0318H9.12418L8.64803 10.5261L8.42962 10.7318ZM2.86024 4.81726L2.64014 5.02112L2.64183 5.02293L2.86024 4.81726ZM60.4676 8.24482C60.4676 9.55564 60.7324 10.6189 61.2326 11.4957C61.7328 12.3724 62.4566 13.0423 63.3428 13.5843L63.6559 13.0725C62.8347 12.5702 62.1927 11.9677 61.7538 11.1984C61.315 10.4292 61.0676 9.47292 61.0676 8.24482H60.4676ZM63.3659 2.90554C61.6757 3.94322 60.4676 5.69299 60.4676 8.24482H61.0676C61.0676 5.915 62.1556 4.35263 63.6798 3.41687L63.3659 2.90554ZM72.8424 0.968555C68.4964 0.968555 65.2585 1.73867 63.3654 2.90584L63.6803 3.41657C65.4373 2.33334 68.5459 1.56855 72.8424 1.56855V0.968555ZM82.3308 2.90561C80.432 1.73869 77.1885 0.968555 72.8424 0.968555V1.56855C77.1389 1.56855 80.2536 2.33331 82.0167 3.4168L82.3308 2.90561ZM85.229 8.24482C85.229 5.69299 84.021 3.94322 82.3307 2.90554L82.0168 3.41687C83.541 4.35263 84.629 5.915 84.629 8.24482H85.229ZM82.3539 13.5843C83.2398 13.0424 83.9637 12.3741 84.4639 11.498C84.9642 10.6218 85.229 9.55843 85.229 8.24482H84.629C84.629 9.4759 84.3816 10.4321 83.9429 11.2005C83.5041 11.9689 82.8622 12.57 82.0408 13.0725L82.3539 13.5843ZM72.8483 15.5211C77.295 15.5211 80.4558 14.7508 82.3544 13.584L82.0402 13.0728C80.2769 14.1565 77.2443 14.9211 72.8483 14.9211V15.5211ZM63.3419 13.5838C65.2348 14.7509 68.4019 15.5211 72.8483 15.5211V14.9211C68.4521 14.9211 65.4139 14.1564 63.6567 13.0731L63.3419 13.5838ZM84.1463 8.24482C84.1463 10.4228 83.2197 11.8042 81.7583 12.6974L82.0712 13.2093C83.7065 12.2099 84.7463 10.6369 84.7463 8.24482H84.1463ZM81.7746 3.80876C83.2171 4.70053 84.1463 6.17937 84.1463 8.24482H84.7463C84.7463 5.97102 83.7091 4.29929 82.0901 3.29841L81.7746 3.80876ZM72.8424 2.00133C77.161 2.00133 80.0933 2.76564 81.7742 3.80851L82.0905 3.29866C80.2744 2.1719 77.2134 1.40133 72.8424 1.40133V2.00133ZM63.9102 3.80875C65.5973 2.76555 68.5241 2.00133 72.8424 2.00133V1.40133C68.4711 1.40133 65.4164 2.172 63.5947 3.29842L63.9102 3.80875ZM61.5386 8.24482C61.5386 6.17937 62.4678 4.70053 63.9102 3.80876L63.5947 3.29841C61.9758 4.29929 60.9386 5.97102 60.9386 8.24482H61.5386ZM63.9266 12.6974C62.4652 11.8042 61.5386 10.4228 61.5386 8.24482H60.9386C60.9386 10.6369 61.9784 12.2099 63.6137 13.2093L63.9266 12.6974ZM72.8365 14.4883C68.6585 14.4883 65.5904 13.718 63.927 12.6976L63.6133 13.2091C65.4115 14.3122 68.6075 15.0883 72.8365 15.0883V14.4883ZM81.7579 12.6976C80.0945 13.718 77.0147 14.4883 72.8365 14.4883V15.0883C77.0654 15.0883 80.2732 14.3122 82.0716 13.2091L81.7579 12.6976ZM16.0475 9.34693V1.54552H15.4475V9.34693H16.0475ZM26.2799 14.4825C22.6096 14.4825 20.0361 13.8657 18.3911 12.913C16.7581 11.9673 16.0475 10.6989 16.0475 9.34693H15.4475C15.4475 10.9493 16.3059 12.3988 18.0904 13.4322C19.863 14.4588 22.5557 15.0825 26.2799 15.0825V14.4825ZM36.5122 9.34693C36.5122 10.6989 35.8016 11.9673 34.1686 12.913C32.5236 13.8657 29.9501 14.4825 26.2799 14.4825V15.0825C30.004 15.0825 32.6967 14.4588 34.4693 13.4322C36.2538 12.3988 37.1122 10.9493 37.1122 9.34693H36.5122ZM36.5122 1.54552V9.34693H37.1122V1.54552H36.5122ZM37.295 1.24552H36.8122V1.84552H37.295V1.24552ZM37.595 9.40464V1.54552H36.995V9.40464H37.595ZM26.2799 15.5153C30.1757 15.5153 32.9901 14.8465 34.8413 13.7495C36.7045 12.6454 37.595 11.1019 37.595 9.40464H36.995C36.995 10.8579 36.2458 12.2198 34.5354 13.2333C32.813 14.254 30.1199 14.9153 26.2799 14.9153V15.5153ZM14.9647 9.40464C14.9647 11.1047 15.8551 12.6482 17.7185 13.7517C19.5697 14.848 22.3841 15.5153 26.2799 15.5153V14.9153C22.4397 14.9153 19.7466 14.2554 18.0242 13.2355C16.314 12.2227 15.5647 10.8609 15.5647 9.40464H14.9647ZM14.9647 1.54552V9.40464H15.5647V1.54552H14.9647ZM15.7475 1.24552H15.2647V1.84552H15.7475V1.24552ZM109.373 14.6441H108.89V15.2441H109.373V14.6441ZM109.073 1.54552V14.9441H109.673V1.54552H109.073ZM108.89 1.84552H109.373V1.24552H108.89V1.84552ZM109.19 14.9441V1.54552H108.59V14.9441H109.19ZM126.069 2.00133C130.144 2.00133 134.244 2.56996 136.299 2.99902L136.422 2.41169C134.332 1.97521 130.19 1.40133 126.069 1.40133V2.00133ZM117.696 3.10568C119.055 2.57064 121.81 2.00133 126.069 2.00133V1.40133C121.769 1.40133 118.931 1.97453 117.476 2.54738L117.696 3.10568ZM115.955 5.23274C115.955 4.72088 116.093 4.31684 116.363 3.98253C116.639 3.64223 117.07 3.3514 117.695 3.10575L117.476 2.54731C116.794 2.81521 116.26 3.15623 115.897 3.60502C115.529 4.05979 115.355 4.60208 115.355 5.23274H115.955ZM117.294 6.97809C116.814 6.82479 116.486 6.5983 116.276 6.31897C116.066 6.04063 115.955 5.6836 115.955 5.23274H115.355C115.355 5.7859 115.493 6.2771 115.796 6.67965C116.098 7.08121 116.544 7.36828 117.112 7.54965L117.294 6.97809ZM126.269 7.53513C123.841 7.53513 121.887 7.49043 120.391 7.39722C118.885 7.30348 117.868 7.16184 117.295 6.97818L117.112 7.54956C117.763 7.75828 118.847 7.90228 120.353 7.99606C121.868 8.09039 123.835 8.13513 126.269 8.13513V7.53513ZM135.16 7.99831C133.455 7.6143 130.42 7.53513 126.269 7.53513V8.13513C130.444 8.13513 133.402 8.21753 135.029 8.58366L135.16 7.99831ZM137.95 11.0665C137.95 10.3635 137.764 9.69965 137.303 9.15419C136.845 8.61063 136.14 8.21564 135.16 7.99811L135.03 8.58386C135.921 8.78178 136.494 9.12539 136.845 9.54114C137.194 9.95499 137.35 10.4712 137.35 11.0665H137.95ZM135.873 14.3311C136.57 13.9927 137.1 13.6033 137.45 13.0678C137.802 12.5305 137.95 11.8811 137.95 11.0665H137.35C137.35 11.8098 137.215 12.3318 136.948 12.7394C136.68 13.1487 136.257 13.4778 135.611 13.7914L135.873 14.3311ZM126.894 15.5269C128.762 15.5269 130.56 15.4414 132.109 15.2513C133.652 15.0619 134.974 14.7659 135.873 14.3314L135.612 13.7912C134.803 14.1817 133.561 14.4685 132.036 14.6557C130.518 14.8421 128.746 14.9269 126.894 14.9269V15.5269ZM115.488 14.4345C117.584 14.913 121.886 15.5269 126.894 15.5269V14.9269C121.928 14.9269 117.67 14.3174 115.621 13.8496L115.488 14.4345ZM115.342 13.6531L115.26 14.0859L115.849 14.1982L115.932 13.7654L115.342 13.6531ZM126.894 14.4941C122.01 14.4941 117.753 13.8847 115.704 13.4168L115.57 14.0017C117.666 14.4802 121.968 15.0941 126.894 15.0941V14.4941ZM135.436 13.3781C133.67 14.174 130.674 14.4941 126.894 14.4941V15.0941C130.672 15.0941 133.787 14.7794 135.683 13.9251L135.436 13.3781ZM136.867 11.0723C136.867 11.6454 136.781 12.0923 136.572 12.4542C136.365 12.8116 136.02 13.1192 135.438 13.3774L135.681 13.9258C136.348 13.63 136.806 13.248 137.091 12.7543C137.374 12.2651 137.467 11.6994 137.467 11.0723H136.867ZM134.868 9.02175C135.68 9.21028 136.17 9.4887 136.46 9.81779C136.744 10.1411 136.867 10.5498 136.867 11.0723H137.467C137.467 10.4522 137.319 9.88573 136.91 9.42138C136.506 8.96283 135.881 8.64115 135.003 8.4373L134.868 9.02175ZM126.269 8.57367C130.363 8.57367 133.319 8.65628 134.867 9.0215L135.004 8.43754C133.373 8.05263 130.336 7.97367 126.269 7.97367V8.57367ZM116.951 7.94719C117.653 8.17643 118.792 8.33064 120.333 8.42952C121.882 8.52893 123.865 8.57367 126.269 8.57367V7.97367C123.87 7.97367 121.902 7.92897 120.371 7.83075C118.832 7.732 117.76 7.58038 117.137 7.37686L116.951 7.94719ZM114.872 5.23851C114.872 5.90979 115.037 6.47709 115.397 6.93786C115.754 7.3951 116.28 7.71774 116.947 7.94589L117.141 7.37816C116.543 7.17353 116.132 6.90472 115.87 6.56855C115.61 6.2359 115.472 5.80783 115.472 5.23851H114.872ZM117.277 2.16025C116.509 2.45829 115.905 2.85379 115.492 3.37082C115.076 3.89257 114.872 4.51727 114.872 5.23851H115.472C115.472 4.63835 115.639 4.14938 115.961 3.745C116.288 3.3359 116.79 2.9928 117.494 2.71959L117.277 2.16025ZM126.063 0.968555C121.88 0.968555 118.825 1.55926 117.277 2.16026L117.494 2.71959C118.949 2.15499 121.922 1.56855 126.063 1.56855V0.968555ZM136.522 2.00216C134.432 1.55983 130.231 0.968555 126.063 0.968555V1.56855C130.185 1.56855 134.344 2.15442 136.398 2.58916L136.522 2.00216ZM136.652 2.77655L136.752 2.36686L136.169 2.22447L136.069 2.63416L136.652 2.77655ZM98.0314 10.6028C97.5879 10.2869 97.2137 10.0289 96.9502 9.84972C96.8185 9.76012 96.7143 9.69021 96.643 9.64261C96.6074 9.61881 96.5799 9.60058 96.5613 9.58826C96.552 9.5821 96.5449 9.57741 96.5401 9.57424C96.5377 9.57266 96.5358 9.57145 96.5346 9.57063C96.534 9.57022 96.5335 9.5699 96.5331 9.56968C96.533 9.56958 96.5329 9.56949 96.5328 9.56943C96.5327 9.5694 96.5327 9.56938 96.5326 9.56936C96.5326 9.56935 96.5326 9.56934 96.5326 9.56933C96.5326 9.56933 96.5326 9.56932 96.3679 9.8201C96.2033 10.0709 96.2033 10.0709 96.2033 10.0709C96.2033 10.0709 96.2033 10.0709 96.2033 10.0709C96.2033 10.0709 96.2033 10.0709 96.2033 10.0709C96.2034 10.0709 96.2035 10.071 96.2036 10.0711C96.2039 10.0713 96.2043 10.0715 96.2048 10.0719C96.2059 10.0726 96.2076 10.0737 96.2099 10.0752C96.2144 10.0782 96.2211 10.0826 96.2301 10.0886C96.2481 10.1005 96.2749 10.1183 96.3099 10.1417C96.3799 10.1884 96.4826 10.2573 96.6128 10.3459C96.8733 10.523 97.2439 10.7785 97.6834 11.0916L98.0314 10.6028ZM103.543 14.5796L98.0329 10.6039L97.6819 11.0905L103.192 15.0662L103.543 14.5796ZM103.71 14.7024L103.546 14.5812L103.19 15.0646L103.355 15.1858L103.71 14.7024ZM102.762 15.2441H103.533V14.6441H102.762V15.2441ZM95.4271 10.023L102.586 15.1874L102.937 14.7008L95.7781 9.5364L95.4271 10.023ZM89.5328 10.0797H95.6026V9.4797H89.5328V10.0797ZM89.2328 9.34693V9.7797H89.8328V9.34693H89.2328ZM96.5681 9.04693H89.5328V9.64693H96.5681V9.04693ZM102.32 5.74051C102.32 6.64311 102.062 7.43989 101.264 8.02696C100.444 8.63024 99.0094 9.04693 96.5681 9.04693V9.64693C99.0545 9.64693 100.646 9.22694 101.62 8.51026C102.616 7.77738 102.92 6.77095 102.92 5.74051H102.32ZM96.5681 2.27829C99.0455 2.27829 100.477 2.72463 101.286 3.35777C102.076 3.97635 102.32 4.81259 102.32 5.74051H102.92C102.92 4.70076 102.64 3.6559 101.656 2.88528C100.69 2.12922 99.0948 1.67829 96.5681 1.67829V2.27829ZM89.5328 2.27829H96.5681V1.67829H89.5328V2.27829ZM89.2328 1.54552V1.97829H89.8328V1.54552H89.2328ZM96.5681 1.24552H89.5328V1.84552H96.5681V1.24552ZM103.403 5.74051C103.403 4.58112 103.095 3.42924 102.037 2.58029C100.995 1.7446 99.2789 1.24552 96.5681 1.24552V1.84552C99.2265 1.84552 100.777 2.33892 101.661 3.04823C102.529 3.74427 102.803 4.68989 102.803 5.74051H103.403ZM96.5681 10.0797C99.236 10.0797 100.949 9.61002 101.999 8.81266C103.069 8.00051 103.403 6.88727 103.403 5.74051H102.803C102.803 6.76337 102.513 7.66973 101.637 8.33477C100.741 9.0146 99.187 9.4797 96.5681 9.4797V10.0797ZM96.3679 10.0797H96.5681V9.4797H96.3679V10.0797ZM96.6679 9.8201V9.7797H96.0679V9.8201H96.6679ZM49.3934 9.8201C49.2287 10.0709 49.2287 10.0709 49.2287 10.0709C49.2287 10.0709 49.2287 10.0709 49.2287 10.0709C49.2288 10.0709 49.2288 10.0709 49.2288 10.0709C49.2289 10.0709 49.2289 10.071 49.2291 10.0711C49.2293 10.0713 49.2297 10.0715 49.2303 10.0719C49.2314 10.0726 49.2331 10.0737 49.2353 10.0752C49.2398 10.0782 49.2466 10.0827 49.2556 10.0886C49.2736 10.1005 49.3004 10.1183 49.3354 10.1417C49.4054 10.1884 49.5081 10.2573 49.6383 10.3459C49.8988 10.523 50.2693 10.7785 50.7089 11.0916L51.0569 10.6028C50.6133 10.2869 50.2392 10.0289 49.9757 9.84972C49.8439 9.76012 49.7398 9.69021 49.6685 9.64261C49.6328 9.61881 49.6054 9.60058 49.5868 9.58826C49.5774 9.5821 49.5703 9.57741 49.5655 9.57424C49.5631 9.57266 49.5613 9.57145 49.56 9.57063C49.5594 9.57022 49.5589 9.5699 49.5586 9.56968C49.5584 9.56958 49.5583 9.56949 49.5582 9.56943C49.5582 9.5694 49.5581 9.56937 49.5581 9.56936C49.5581 9.56935 49.5581 9.56934 49.5581 9.56933C49.5581 9.56933 49.5581 9.56932 49.3934 9.8201ZM49.0934 9.7797V9.8201H49.6934V9.7797H49.0934ZM49.5936 9.4797H49.3934V10.0797H49.5936V9.4797ZM55.8285 5.74051C55.8285 6.76337 55.5381 7.66973 54.6622 8.33477C53.7667 9.0146 52.2124 9.4797 49.5936 9.4797V10.0797C52.2615 10.0797 53.9747 9.61002 55.025 8.81266C56.0947 8.00051 56.4285 6.88727 56.4285 5.74051H55.8285ZM49.5936 1.84552C52.2519 1.84552 53.8029 2.33892 54.6867 3.04823C55.554 3.74427 55.8285 4.68989 55.8285 5.74051H56.4285C56.4285 4.58112 56.1201 3.42924 55.0622 2.58029C54.0209 1.7446 52.3044 1.24552 49.5936 1.24552V1.84552ZM42.5583 1.84552H49.5936V1.24552H42.5583V1.84552ZM42.8583 1.97829V1.54552H42.2583V1.97829H42.8583ZM49.5936 1.67829H42.5583V2.27829H49.5936V1.67829ZM55.9457 5.74051C55.9457 4.70076 55.6658 3.6559 54.6811 2.88528C53.7151 2.12922 52.1203 1.67829 49.5936 1.67829V2.27829C52.071 2.27829 53.5023 2.72463 54.3113 3.35777C55.1017 3.97635 55.3457 4.81259 55.3457 5.74051H55.9457ZM49.5936 9.64693C52.08 9.64693 53.6711 9.22694 54.6453 8.51026C55.6415 7.77738 55.9457 6.77095 55.9457 5.74051H55.3457C55.3457 6.64311 55.0877 7.43989 54.2897 8.02696C53.4697 8.63024 52.0348 9.04693 49.5936 9.04693V9.64693ZM42.5583 9.64693H49.5936V9.04693H42.5583V9.64693ZM42.8583 9.7797V9.34693H42.2583V9.7797H42.8583ZM48.6281 9.4797H42.5583V10.0797H48.6281V9.4797ZM55.9625 14.7008L48.8036 9.5364L48.4525 10.023L55.6115 15.1874L55.9625 14.7008ZM56.5582 14.6441H55.787V15.2441H56.5582V14.6441ZM56.2157 15.0646L56.3805 15.1858L56.7359 14.7024L56.5711 14.5812L56.2157 15.0646ZM50.7074 11.0905L56.2179 15.0662L56.5689 14.5796L51.0584 10.6039L50.7074 11.0905ZM0.111133 1.54552V2.16294H0.711133V1.54552H0.111133ZM13.1694 14.646L0.629459 1.33976L0.192807 1.75127L12.7327 15.0575L13.1694 14.646ZM13.2511 14.9499V14.8518H12.6511V14.9499H13.2511ZM12.4094 15.2499H12.9511V14.6499H12.4094V15.2499ZM8.63485 11.37L12.1908 15.1553L12.6281 14.7445L9.07215 10.9592L8.63485 11.37ZM0.411133 11.4646H8.8535V10.8646H0.411133V11.4646ZM0.111133 10.7318V11.1646H0.711133V10.7318H0.111133ZM8.42962 10.4318H0.411133V11.0318H8.42962V10.4318ZM2.64183 5.02293L8.21121 10.9375L8.64803 10.5261L3.07865 4.6116L2.64183 5.02293ZM0.190161 2.36584C0.455338 2.65463 1.53889 3.83208 2.64014 5.02112L3.08034 4.61341C1.97975 3.42509 0.896783 2.24827 0.632105 1.96003L0.190161 2.36584Z" fill="white" mask="url(#path-1-outside-1)"/>
</svg>
