<svg width="491" height="188" viewBox="0 0 491 188" fill="none" xmlns="http://www.w3.org/2000/svg">
<path d="M0.780433 187.753H123.479V181.097H0.780433V187.753Z" fill="#D12026"/>
<path d="M124.517 172H171.111V168.672L161.793 168.228C155.58 168.006 154.027 167.119 154.027 162.681V0.0447976L124.517 7.36676V8.69802L141.824 15.1325V162.681C141.824 167.119 140.049 168.006 133.836 168.228L124.517 168.672V172ZM214.459 174.441C231.987 174.441 246.631 166.675 252.4 144.265L253.066 173.331L281.244 169.116V165.787H263.716L264.16 93.0115C264.382 67.9394 253.953 57.733 230.212 57.733C218.453 57.733 208.912 62.1705 199.371 67.0519C189.387 72.155 179.402 79.477 179.402 87.0208C179.402 92.3459 182.509 94.5647 186.946 95.4522C189.387 95.896 192.271 95.6741 194.49 95.4522C191.162 76.5926 204.696 62.3924 225.109 62.3924C244.634 62.3924 252.4 74.1519 252.4 88.3521C252.4 97.0053 252.178 102.996 222.225 110.762C201.812 116.087 178.737 123.187 178.737 143.822C178.737 160.019 193.159 174.441 214.459 174.441ZM219.34 168.228C202.7 168.228 193.159 156.247 193.159 142.934C193.159 125.406 208.246 119.637 227.106 112.981C237.978 109.209 245.078 106.324 252.4 101.665L251.956 130.731C251.513 158.022 235.759 168.228 219.34 168.228ZM344.953 57.733C329.865 57.733 316.108 64.8331 308.565 75.927V0.0447976L279.055 7.36676V8.69802L296.361 15.1325V172.888L297.914 173.331L307.455 157.356C314.999 167.784 328.312 174.441 343.399 174.441C375.35 174.441 397.538 149.59 397.538 116.087C397.538 81.9177 375.572 57.733 344.953 57.733ZM339.627 64.1674C366.253 64.1674 383.559 87.0208 383.559 116.087C383.559 146.262 366.253 168.894 339.406 168.894C329.421 168.894 317.218 165.344 308.565 154.694V78.1457C317.218 67.4956 329.421 64.1674 339.627 64.1674ZM447.59 174.441C472.662 174.441 490.634 161.128 490.634 141.825C490.634 122.743 476.434 113.868 456.465 109.209L444.262 106.324C430.505 102.996 421.63 96.7835 421.63 83.4708C421.63 70.6019 433.168 61.9487 449.587 61.9487C454.246 61.9487 457.796 62.3924 461.125 63.2799C464.009 64.1674 466.45 65.2768 468.668 69.9363L483.09 98.5585H486.197L480.428 63.7237C471.997 59.7299 462.234 57.733 452.249 57.733C429.396 57.733 411.868 70.1581 411.868 88.1302C411.868 104.993 423.627 115.199 441.599 119.637L453.359 122.521C468.225 126.071 479.54 130.953 479.54 146.484C479.54 162.016 464.896 170.447 448.921 170.447C444.04 170.447 439.824 170.003 435.609 169.116C431.393 168.228 428.509 167.119 426.734 162.681L414.53 130.731H411.424L414.752 168.228C423.627 172.444 434.943 174.441 447.59 174.441Z" fill="white"/>
</svg>
