<?xml version="1.0" encoding="utf-8"?>
<!-- Generator: Adobe Illustrator 25.1.0, SVG Export Plug-In . SVG Version: 6.00 Build 0)  -->
<svg version="1.1" id="Layer_1" xmlns="http://www.w3.org/2000/svg" xmlns:xlink="http://www.w3.org/1999/xlink" x="0px" y="0px"
	 viewBox="0 0 1440 1440" style="enable-background:new 0 0 1440 1440;" xml:space="preserve">
<style type="text/css">
	.st0{fill:none;stroke:#333333;stroke-width:0.75;stroke-miterlimit:10;}
	.st1{clip-path:url(#SVGID_2_);}
	.st2{fill:none;stroke:#262626;stroke-miterlimit:10;}
</style>
<g>
	<line class="st0" x1="-1970.22" y1="524.63" x2="-2330.91" y2="-43.37"/>
	<line class="st0" x1="-1986.46" y1="539.62" x2="-2342.21" y2="-52.38"/>
	<line class="st0" x1="-2002.7" y1="554.61" x2="-2353.5" y2="-61.38"/>
	<line class="st0" x1="-2018.95" y1="569.6" x2="-2364.8" y2="-70.39"/>
	<line class="st0" x1="-2035.19" y1="584.59" x2="-2376.09" y2="-79.39"/>
	<line class="st0" x1="-2051.44" y1="599.58" x2="-2387.38" y2="-88.4"/>
	<line class="st0" x1="-2067.68" y1="614.57" x2="-2398.68" y2="-97.4"/>
	<line class="st0" x1="-2083.92" y1="629.56" x2="-2409.97" y2="-106.41"/>
	<line class="st0" x1="-2100.17" y1="644.55" x2="-2421.26" y2="-115.41"/>
	<line class="st0" x1="-2116.41" y1="659.54" x2="-2432.56" y2="-124.42"/>
	<line class="st0" x1="-2132.66" y1="674.53" x2="-2443.85" y2="-133.42"/>
	<line class="st0" x1="-2148.9" y1="689.52" x2="-2455.14" y2="-142.43"/>
	<line class="st0" x1="-2165.14" y1="704.51" x2="-2466.44" y2="-151.43"/>
	<line class="st0" x1="-2181.39" y1="719.5" x2="-2477.73" y2="-160.44"/>
	<line class="st0" x1="-2197.63" y1="734.49" x2="-2489.02" y2="-169.44"/>
	<line class="st0" x1="-2213.88" y1="749.48" x2="-2500.32" y2="-178.45"/>
	<line class="st0" x1="-2230.12" y1="764.47" x2="-2511.61" y2="-187.45"/>
	<line class="st0" x1="-2246.36" y1="779.46" x2="-2522.91" y2="-196.46"/>
	<line class="st0" x1="-2262.61" y1="794.45" x2="-2534.2" y2="-205.46"/>
	<line class="st0" x1="-2278.85" y1="809.44" x2="-2545.49" y2="-214.47"/>
	<line class="st0" x1="-2295.1" y1="824.43" x2="-2556.79" y2="-223.47"/>
	<line class="st0" x1="-2311.34" y1="839.42" x2="-2568.08" y2="-232.48"/>
	<line class="st0" x1="-2327.58" y1="854.41" x2="-2579.37" y2="-241.48"/>
	<line class="st0" x1="-2343.83" y1="869.4" x2="-2590.67" y2="-250.49"/>
	<line class="st0" x1="-2360.07" y1="884.39" x2="-2601.96" y2="-259.49"/>
	<line class="st0" x1="-2376.32" y1="899.38" x2="-2613.25" y2="-268.5"/>
	<line class="st0" x1="-2392.56" y1="914.37" x2="-2624.55" y2="-277.5"/>
	<line class="st0" x1="-2408.8" y1="929.36" x2="-2635.84" y2="-286.51"/>
	<line class="st0" x1="-2425.05" y1="944.35" x2="-2647.13" y2="-295.51"/>
	<line class="st0" x1="-2441.29" y1="959.34" x2="-2658.43" y2="-304.52"/>
	<line class="st0" x1="-2457.54" y1="974.33" x2="-2669.72" y2="-313.52"/>
	<line class="st0" x1="-2473.78" y1="989.32" x2="-2681.01" y2="-322.53"/>
	<line class="st0" x1="-2490.02" y1="1004.31" x2="-2692.31" y2="-331.53"/>
	<line class="st0" x1="-2506.27" y1="1019.3" x2="-2703.6" y2="-340.54"/>
	<line class="st0" x1="-2522.51" y1="1034.29" x2="-2714.9" y2="-349.54"/>
	<line class="st0" x1="-2538.76" y1="1049.28" x2="-2726.19" y2="-358.55"/>
	<line class="st0" x1="-2555" y1="1064.27" x2="-2737.48" y2="-367.55"/>
	<line class="st0" x1="-2571.24" y1="1079.26" x2="-2748.78" y2="-376.56"/>
	<line class="st0" x1="-2587.49" y1="1094.25" x2="-2760.07" y2="-385.56"/>
	<line class="st0" x1="-2603.73" y1="1109.24" x2="-2771.36" y2="-394.57"/>
	<line class="st0" x1="-2619.98" y1="1124.23" x2="-2782.66" y2="-403.58"/>
	<line class="st0" x1="-2636.22" y1="1139.22" x2="-2793.95" y2="-412.58"/>
	<line class="st0" x1="-2652.46" y1="1154.21" x2="-2805.24" y2="-421.59"/>
	<line class="st0" x1="-2668.71" y1="1169.2" x2="-2816.54" y2="-430.59"/>
	<line class="st0" x1="-2684.95" y1="1184.19" x2="-2827.83" y2="-439.6"/>
	<line class="st0" x1="-2701.2" y1="1199.18" x2="-2839.12" y2="-448.6"/>
	<line class="st0" x1="-2717.44" y1="1214.17" x2="-2850.42" y2="-457.61"/>
	<line class="st0" x1="-2733.68" y1="1229.16" x2="-2861.71" y2="-466.61"/>
	<line class="st0" x1="-2749.93" y1="1244.15" x2="-2873.01" y2="-475.62"/>
	<line class="st0" x1="-2766.17" y1="1259.14" x2="-2884.3" y2="-484.62"/>
	<line class="st0" x1="-2782.42" y1="1274.13" x2="-2895.59" y2="-493.63"/>
	<line class="st0" x1="-2798.66" y1="1289.12" x2="-2906.89" y2="-502.63"/>
	<line class="st0" x1="-2814.9" y1="1304.11" x2="-2918.18" y2="-511.64"/>
	<line class="st0" x1="-2831.15" y1="1319.1" x2="-2929.47" y2="-520.64"/>
	<line class="st0" x1="-2847.39" y1="1334.09" x2="-2940.77" y2="-529.65"/>
	<line class="st0" x1="-2863.64" y1="1349.08" x2="-2952.06" y2="-538.65"/>
	<line class="st0" x1="-2879.88" y1="1364.07" x2="-2963.35" y2="-547.66"/>
	<line class="st0" x1="-2896.12" y1="1379.06" x2="-2974.65" y2="-556.66"/>
	<line class="st0" x1="-2912.37" y1="1394.05" x2="-2985.94" y2="-565.67"/>
	<line class="st0" x1="-2928.61" y1="1409.04" x2="-2997.23" y2="-574.67"/>
	<line class="st0" x1="-2944.86" y1="1424.03" x2="-3008.53" y2="-583.68"/>
	<line class="st0" x1="-2961.1" y1="1439.02" x2="-3019.82" y2="-592.68"/>
	<line class="st0" x1="-2977.34" y1="1454.01" x2="-3031.11" y2="-601.69"/>
	<line class="st0" x1="-2993.59" y1="1469" x2="-3042.41" y2="-610.69"/>
	<line class="st0" x1="-3009.83" y1="1483.99" x2="-3053.7" y2="-619.7"/>
	<line class="st0" x1="-3026.08" y1="1498.98" x2="-3065" y2="-628.7"/>
	<line class="st0" x1="-3042.32" y1="1513.97" x2="-3076.29" y2="-637.71"/>
	<line class="st0" x1="-3058.56" y1="1528.96" x2="-3087.58" y2="-646.71"/>
	<line class="st0" x1="-3074.81" y1="1543.95" x2="-3098.88" y2="-655.72"/>
	<line class="st0" x1="-3091.05" y1="1558.94" x2="-3110.17" y2="-664.72"/>
	<line class="st0" x1="-3107.3" y1="1573.93" x2="-3121.46" y2="-673.73"/>
	<line class="st0" x1="-3123.54" y1="1588.92" x2="-3132.76" y2="-682.73"/>
	<line class="st0" x1="-3139.78" y1="1603.91" x2="-3144.05" y2="-691.74"/>
	<line class="st0" x1="-3156.03" y1="1618.9" x2="-3155.34" y2="-700.74"/>
	<line class="st0" x1="-3172.27" y1="1633.89" x2="-3166.64" y2="-709.75"/>
	<line class="st0" x1="-3188.52" y1="1648.88" x2="-3177.93" y2="-718.75"/>
	<line class="st0" x1="-3204.76" y1="1663.87" x2="-3189.22" y2="-727.76"/>
	<line class="st0" x1="-3221" y1="1678.86" x2="-3200.52" y2="-736.76"/>
	<line class="st0" x1="-3237.25" y1="1693.85" x2="-3211.81" y2="-745.77"/>
	<line class="st0" x1="-3253.49" y1="1708.84" x2="-3223.11" y2="-754.77"/>
	<line class="st0" x1="-3269.74" y1="1723.83" x2="-3234.4" y2="-763.78"/>
	<line class="st0" x1="-3285.98" y1="1738.82" x2="-3245.69" y2="-772.78"/>
	<line class="st0" x1="-3302.22" y1="1753.81" x2="-3256.99" y2="-781.79"/>
	<line class="st0" x1="-3318.47" y1="1768.81" x2="-3268.28" y2="-790.79"/>
	<line class="st0" x1="-3334.71" y1="1783.8" x2="-3279.57" y2="-799.8"/>
	<line class="st0" x1="-3350.96" y1="1798.79" x2="-3290.87" y2="-808.8"/>
	<line class="st0" x1="-3367.2" y1="1813.78" x2="-3302.16" y2="-817.81"/>
	<line class="st0" x1="-3383.44" y1="1828.77" x2="-3313.45" y2="-826.81"/>
	<line class="st0" x1="-3399.69" y1="1843.76" x2="-3324.75" y2="-835.82"/>
	<line class="st0" x1="-3415.93" y1="1858.75" x2="-3336.04" y2="-844.82"/>
	<line class="st0" x1="-3432.18" y1="1873.74" x2="-3347.33" y2="-853.83"/>
	<line class="st0" x1="-3448.42" y1="1888.73" x2="-3358.63" y2="-862.83"/>
	<line class="st0" x1="-3464.66" y1="1903.72" x2="-3369.92" y2="-871.84"/>
	<line class="st0" x1="-3480.91" y1="1918.71" x2="-3381.22" y2="-880.84"/>
	<line class="st0" x1="-3497.15" y1="1933.7" x2="-3392.51" y2="-889.85"/>
	<line class="st0" x1="-3513.4" y1="1948.69" x2="-3403.8" y2="-898.85"/>
	<line class="st0" x1="-3529.64" y1="1963.68" x2="-3415.1" y2="-907.86"/>
	<line class="st0" x1="-3545.88" y1="1978.67" x2="-3426.39" y2="-916.86"/>
	<line class="st0" x1="-3562.13" y1="1993.66" x2="-3437.68" y2="-925.87"/>
	<line class="st0" x1="-3578.37" y1="2008.65" x2="-3448.98" y2="-934.87"/>
	<line class="st0" x1="-3594.62" y1="2023.64" x2="-3460.27" y2="-943.88"/>
	<line class="st0" x1="-3610.86" y1="2038.63" x2="-3471.56" y2="-952.88"/>
	<line class="st0" x1="-3627.1" y1="2053.62" x2="-3482.86" y2="-961.89"/>
	<line class="st0" x1="-3643.35" y1="2068.61" x2="-3494.15" y2="-970.89"/>
	<line class="st0" x1="-3659.59" y1="2083.6" x2="-3505.44" y2="-979.9"/>
	<line class="st0" x1="-3675.84" y1="2098.59" x2="-3516.74" y2="-988.9"/>
	<line class="st0" x1="-3692.08" y1="2113.58" x2="-3528.03" y2="-997.91"/>
	<line class="st0" x1="-3708.32" y1="2128.57" x2="-3539.32" y2="-1006.91"/>
	<line class="st0" x1="-3724.57" y1="2143.56" x2="-3550.62" y2="-1015.92"/>
	<line class="st0" x1="-3740.81" y1="2158.55" x2="-3561.91" y2="-1024.92"/>
	<line class="st0" x1="-3757.06" y1="2173.54" x2="-3573.21" y2="-1033.93"/>
	<line class="st0" x1="-3773.3" y1="2188.53" x2="-3584.5" y2="-1042.93"/>
</g>
<g>
	<defs>
		<rect id="SVGID_1_" y="0" width="1440" height="1440"/>
	</defs>
	<clipPath id="SVGID_2_">
		<use xlink:href="#SVGID_1_"  style="overflow:visible;"/>
	</clipPath>
	<g class="st1">
		<rect y="0" width="1440" height="1440"/>
	</g>
	<g class="st1">
		<line class="st2" x1="769.88" y1="528.52" x2="-519.28" y2="1722.32"/>
		<line class="st2" x1="777.88" y1="527.19" x2="-484.11" y2="1720.66"/>
		<line class="st2" x1="785.88" y1="525.86" x2="-448.94" y2="1718.99"/>
		<line class="st2" x1="793.88" y1="524.52" x2="-413.77" y2="1717.33"/>
		<line class="st2" x1="801.87" y1="523.19" x2="-378.6" y2="1715.66"/>
		<line class="st2" x1="809.87" y1="521.85" x2="-343.43" y2="1713.99"/>
		<line class="st2" x1="817.87" y1="520.52" x2="-308.27" y2="1712.33"/>
		<line class="st2" x1="825.87" y1="519.19" x2="-273.1" y2="1710.66"/>
		<line class="st2" x1="833.87" y1="517.85" x2="-237.93" y2="1709"/>
		<line class="st2" x1="841.87" y1="516.52" x2="-202.76" y2="1707.33"/>
		<line class="st2" x1="849.87" y1="515.18" x2="-167.59" y2="1705.67"/>
		<line class="st2" x1="857.87" y1="513.85" x2="-132.42" y2="1704"/>
		<line class="st2" x1="865.86" y1="512.52" x2="-97.25" y2="1702.34"/>
		<line class="st2" x1="873.86" y1="511.18" x2="-62.09" y2="1700.67"/>
		<line class="st2" x1="881.86" y1="509.85" x2="-26.92" y2="1699.01"/>
		<line class="st2" x1="889.86" y1="508.51" x2="8.25" y2="1697.34"/>
		<line class="st2" x1="897.86" y1="507.18" x2="43.42" y2="1695.67"/>
		<line class="st2" x1="905.86" y1="505.85" x2="78.59" y2="1694.01"/>
		<line class="st2" x1="913.86" y1="504.51" x2="113.76" y2="1692.34"/>
		<line class="st2" x1="921.85" y1="503.18" x2="148.93" y2="1690.68"/>
		<line class="st2" x1="929.85" y1="501.84" x2="184.09" y2="1689.01"/>
		<line class="st2" x1="937.85" y1="500.51" x2="219.26" y2="1687.35"/>
		<line class="st2" x1="945.85" y1="499.17" x2="254.43" y2="1685.68"/>
		<line class="st2" x1="953.85" y1="497.84" x2="289.6" y2="1684.02"/>
		<line class="st2" x1="961.85" y1="496.51" x2="324.77" y2="1682.35"/>
		<line class="st2" x1="969.85" y1="495.17" x2="359.94" y2="1680.68"/>
		<line class="st2" x1="977.85" y1="493.84" x2="395.11" y2="1679.02"/>
		<line class="st2" x1="985.84" y1="492.5" x2="430.27" y2="1677.35"/>
		<line class="st2" x1="993.84" y1="491.17" x2="465.44" y2="1675.69"/>
		<line class="st2" x1="1001.84" y1="489.84" x2="500.61" y2="1674.02"/>
		<line class="st2" x1="1009.84" y1="488.5" x2="535.78" y2="1672.36"/>
		<line class="st2" x1="1017.84" y1="487.17" x2="570.95" y2="1670.69"/>
		<line class="st2" x1="1025.84" y1="485.83" x2="606.12" y2="1669.03"/>
		<line class="st2" x1="1033.84" y1="484.5" x2="641.29" y2="1667.36"/>
		<line class="st2" x1="1041.84" y1="483.17" x2="676.46" y2="1665.7"/>
		<line class="st2" x1="1049.83" y1="481.83" x2="711.62" y2="1664.03"/>
		<line class="st2" x1="1057.83" y1="480.5" x2="746.79" y2="1662.36"/>
		<line class="st2" x1="1065.83" y1="479.16" x2="781.96" y2="1660.7"/>
		<line class="st2" x1="1073.83" y1="477.83" x2="817.13" y2="1659.03"/>
		<line class="st2" x1="1081.83" y1="476.49" x2="852.3" y2="1657.37"/>
		<line class="st2" x1="1089.83" y1="475.16" x2="887.47" y2="1655.7"/>
		<line class="st2" x1="1097.83" y1="473.83" x2="922.64" y2="1654.04"/>
		<line class="st2" x1="1105.83" y1="472.49" x2="957.8" y2="1652.37"/>
		<line class="st2" x1="1113.82" y1="471.16" x2="992.97" y2="1650.71"/>
		<line class="st2" x1="1121.82" y1="469.82" x2="1028.14" y2="1649.04"/>
		<line class="st2" x1="1129.82" y1="468.49" x2="1063.31" y2="1647.37"/>
		<line class="st2" x1="1137.82" y1="467.16" x2="1098.48" y2="1645.71"/>
		<line class="st2" x1="1145.82" y1="465.82" x2="1133.65" y2="1644.04"/>
		<line class="st2" x1="1153.82" y1="464.49" x2="1168.82" y2="1642.38"/>
		<line class="st2" x1="1161.82" y1="463.15" x2="1203.98" y2="1640.71"/>
		<line class="st2" x1="1169.82" y1="461.82" x2="1239.15" y2="1639.05"/>
		<line class="st2" x1="1177.81" y1="460.49" x2="1274.32" y2="1637.38"/>
		<line class="st2" x1="1185.81" y1="459.15" x2="1309.49" y2="1635.72"/>
		<line class="st2" x1="1193.81" y1="457.82" x2="1344.66" y2="1634.05"/>
		<line class="st2" x1="1201.81" y1="456.48" x2="1379.83" y2="1632.39"/>
		<line class="st2" x1="1209.81" y1="455.15" x2="1415" y2="1630.72"/>
		<line class="st2" x1="1217.81" y1="453.82" x2="1450.16" y2="1629.05"/>
		<line class="st2" x1="1225.81" y1="452.48" x2="1485.33" y2="1627.39"/>
		<line class="st2" x1="1233.81" y1="451.15" x2="1520.5" y2="1625.72"/>
		<line class="st2" x1="1241.8" y1="449.81" x2="1555.67" y2="1624.06"/>
		<line class="st2" x1="1249.8" y1="448.48" x2="1590.84" y2="1622.39"/>
		<line class="st2" x1="1257.8" y1="447.14" x2="1626.01" y2="1620.73"/>
		<line class="st2" x1="1265.8" y1="445.81" x2="1661.18" y2="1619.06"/>
		<line class="st2" x1="1273.8" y1="444.48" x2="1696.34" y2="1617.4"/>
		<line class="st2" x1="1281.8" y1="443.14" x2="1731.51" y2="1615.73"/>
		<line class="st2" x1="1289.8" y1="441.81" x2="1766.68" y2="1614.06"/>
		<line class="st2" x1="1297.8" y1="440.47" x2="1801.85" y2="1612.4"/>
		<line class="st2" x1="1305.79" y1="439.14" x2="1837.02" y2="1610.73"/>
		<line class="st2" x1="1313.79" y1="437.81" x2="1872.19" y2="1609.07"/>
		<line class="st2" x1="1321.79" y1="436.47" x2="1907.36" y2="1607.4"/>
		<line class="st2" x1="1329.79" y1="435.14" x2="1942.52" y2="1605.74"/>
		<line class="st2" x1="1337.79" y1="433.8" x2="1977.69" y2="1604.07"/>
		<line class="st2" x1="1345.79" y1="432.47" x2="2012.86" y2="1602.41"/>
		<line class="st2" x1="1353.79" y1="431.14" x2="2048.03" y2="1600.74"/>
		<line class="st2" x1="1361.79" y1="429.8" x2="2083.2" y2="1599.07"/>
		<line class="st2" x1="1369.78" y1="428.47" x2="2118.37" y2="1597.41"/>
		<line class="st2" x1="1377.78" y1="427.13" x2="2153.54" y2="1595.74"/>
		<line class="st2" x1="1385.78" y1="425.8" x2="2188.71" y2="1594.08"/>
		<line class="st2" x1="1393.78" y1="424.47" x2="2223.87" y2="1592.41"/>
		<line class="st2" x1="1401.78" y1="423.13" x2="2259.04" y2="1590.75"/>
		<line class="st2" x1="1409.78" y1="421.8" x2="2294.21" y2="1589.08"/>
		<line class="st2" x1="1417.78" y1="420.46" x2="2329.38" y2="1587.42"/>
		<line class="st2" x1="1425.78" y1="419.13" x2="2364.55" y2="1585.75"/>
		<line class="st2" x1="1433.77" y1="417.79" x2="2399.72" y2="1584.09"/>
		<line class="st2" x1="1441.77" y1="416.46" x2="2434.89" y2="1582.42"/>
		<line class="st2" x1="1449.77" y1="415.13" x2="2470.05" y2="1580.75"/>
		<line class="st2" x1="1457.77" y1="413.79" x2="2505.22" y2="1579.09"/>
		<line class="st2" x1="1465.77" y1="412.46" x2="2540.39" y2="1577.42"/>
		<line class="st2" x1="1473.77" y1="411.12" x2="2575.56" y2="1575.76"/>
		<line class="st2" x1="1481.77" y1="409.79" x2="2610.73" y2="1574.09"/>
		<line class="st2" x1="1489.77" y1="408.46" x2="2645.9" y2="1572.43"/>
		<line class="st2" x1="1497.76" y1="407.12" x2="2681.07" y2="1570.76"/>
		<line class="st2" x1="1505.76" y1="405.79" x2="2716.23" y2="1569.1"/>
		<line class="st2" x1="1513.76" y1="404.45" x2="2751.4" y2="1567.43"/>
		<line class="st2" x1="1521.76" y1="403.12" x2="2786.57" y2="1565.77"/>
		<line class="st2" x1="1529.76" y1="401.79" x2="2821.74" y2="1564.1"/>
		<line class="st2" x1="1537.76" y1="400.45" x2="2856.91" y2="1562.43"/>
		<line class="st2" x1="1545.76" y1="399.12" x2="2892.08" y2="1560.77"/>
		<line class="st2" x1="1553.75" y1="397.78" x2="2927.25" y2="1559.1"/>
		<line class="st2" x1="1561.75" y1="396.45" x2="2962.41" y2="1557.44"/>
		<line class="st2" x1="1569.75" y1="395.12" x2="2997.58" y2="1555.77"/>
		<line class="st2" x1="1577.75" y1="393.78" x2="3032.75" y2="1554.11"/>
	</g>
	<g class="st1">
		<line class="st2" x1="252.54" y1="-281.95" x2="764.69" y2="524.85"/>
		<line class="st2" x1="242.58" y1="-288.81" x2="748.42" y2="539.84"/>
		<line class="st2" x1="232.62" y1="-295.66" x2="732.14" y2="554.83"/>
		<line class="st2" x1="222.66" y1="-302.52" x2="715.87" y2="569.82"/>
		<line class="st2" x1="212.7" y1="-309.37" x2="699.59" y2="584.8"/>
		<line class="st2" x1="202.73" y1="-316.23" x2="683.31" y2="599.79"/>
		<line class="st2" x1="192.77" y1="-323.08" x2="667.04" y2="614.78"/>
		<line class="st2" x1="182.81" y1="-329.94" x2="650.76" y2="629.77"/>
		<line class="st2" x1="172.85" y1="-336.8" x2="634.49" y2="644.76"/>
		<line class="st2" x1="162.89" y1="-343.65" x2="618.21" y2="659.74"/>
		<line class="st2" x1="152.93" y1="-350.51" x2="601.93" y2="674.73"/>
		<line class="st2" x1="142.97" y1="-357.36" x2="585.66" y2="689.72"/>
		<line class="st2" x1="133.01" y1="-364.22" x2="569.38" y2="704.71"/>
		<line class="st2" x1="123.04" y1="-371.07" x2="553.1" y2="719.7"/>
		<line class="st2" x1="113.08" y1="-377.93" x2="536.83" y2="734.68"/>
		<line class="st2" x1="103.12" y1="-384.79" x2="520.55" y2="749.67"/>
		<line class="st2" x1="93.16" y1="-391.64" x2="504.28" y2="764.66"/>
		<line class="st2" x1="83.2" y1="-398.5" x2="488" y2="779.65"/>
		<line class="st2" x1="73.24" y1="-405.35" x2="471.72" y2="794.64"/>
		<line class="st2" x1="63.28" y1="-412.21" x2="455.45" y2="809.62"/>
		<line class="st2" x1="53.32" y1="-419.06" x2="439.17" y2="824.61"/>
		<line class="st2" x1="43.35" y1="-425.92" x2="422.9" y2="839.6"/>
		<line class="st2" x1="33.39" y1="-432.78" x2="406.62" y2="854.59"/>
		<line class="st2" x1="23.43" y1="-439.63" x2="390.34" y2="869.58"/>
		<line class="st2" x1="13.47" y1="-446.49" x2="374.07" y2="884.57"/>
		<line class="st2" x1="3.51" y1="-453.34" x2="357.79" y2="899.55"/>
		<line class="st2" x1="-6.45" y1="-460.2" x2="341.52" y2="914.54"/>
		<line class="st2" x1="-16.41" y1="-467.05" x2="325.24" y2="929.53"/>
		<line class="st2" x1="-26.37" y1="-473.91" x2="308.96" y2="944.52"/>
		<line class="st2" x1="-36.34" y1="-480.77" x2="292.69" y2="959.51"/>
		<line class="st2" x1="-46.3" y1="-487.62" x2="276.41" y2="974.49"/>
		<line class="st2" x1="-56.26" y1="-494.48" x2="260.13" y2="989.48"/>
		<line class="st2" x1="-66.22" y1="-501.33" x2="243.86" y2="1004.47"/>
		<line class="st2" x1="-76.18" y1="-508.19" x2="227.58" y2="1019.46"/>
		<line class="st2" x1="-86.14" y1="-515.04" x2="211.31" y2="1034.45"/>
		<line class="st2" x1="-96.1" y1="-521.9" x2="195.03" y2="1049.43"/>
		<line class="st2" x1="-106.06" y1="-528.76" x2="178.75" y2="1064.42"/>
		<line class="st2" x1="-116.03" y1="-535.61" x2="162.48" y2="1079.41"/>
		<line class="st2" x1="-125.99" y1="-542.47" x2="146.2" y2="1094.4"/>
		<line class="st2" x1="-135.95" y1="-549.32" x2="129.93" y2="1109.39"/>
		<line class="st2" x1="-145.91" y1="-556.18" x2="113.65" y2="1124.37"/>
		<line class="st2" x1="-155.87" y1="-563.03" x2="97.37" y2="1139.36"/>
		<line class="st2" x1="-165.83" y1="-569.89" x2="81.1" y2="1154.35"/>
		<line class="st2" x1="-175.79" y1="-576.75" x2="64.82" y2="1169.34"/>
		<line class="st2" x1="-185.75" y1="-583.6" x2="48.54" y2="1184.33"/>
		<line class="st2" x1="-195.71" y1="-590.46" x2="32.27" y2="1199.31"/>
		<line class="st2" x1="-205.68" y1="-597.31" x2="15.99" y2="1214.3"/>
		<line class="st2" x1="-215.64" y1="-604.17" x2="-0.28" y2="1229.29"/>
		<line class="st2" x1="-225.6" y1="-611.02" x2="-16.56" y2="1244.28"/>
		<line class="st2" x1="-235.56" y1="-617.88" x2="-32.84" y2="1259.27"/>
		<line class="st2" x1="-245.52" y1="-624.74" x2="-49.11" y2="1274.26"/>
		<line class="st2" x1="-255.48" y1="-631.59" x2="-65.39" y2="1289.24"/>
		<line class="st2" x1="-265.44" y1="-638.45" x2="-81.66" y2="1304.23"/>
		<line class="st2" x1="-275.4" y1="-645.3" x2="-97.94" y2="1319.22"/>
		<line class="st2" x1="-285.37" y1="-652.16" x2="-114.22" y2="1334.21"/>
		<line class="st2" x1="-295.33" y1="-659.01" x2="-130.49" y2="1349.2"/>
		<line class="st2" x1="-305.29" y1="-665.87" x2="-146.77" y2="1364.18"/>
		<line class="st2" x1="-315.25" y1="-672.73" x2="-163.05" y2="1379.17"/>
		<line class="st2" x1="-325.21" y1="-679.58" x2="-179.32" y2="1394.16"/>
		<line class="st2" x1="-335.17" y1="-686.44" x2="-195.6" y2="1409.15"/>
		<line class="st2" x1="-345.13" y1="-693.29" x2="-211.87" y2="1424.14"/>
		<line class="st2" x1="-355.09" y1="-700.15" x2="-228.15" y2="1439.12"/>
		<line class="st2" x1="-365.06" y1="-707" x2="-244.43" y2="1454.11"/>
		<line class="st2" x1="-375.02" y1="-713.86" x2="-260.7" y2="1469.1"/>
		<line class="st2" x1="-384.98" y1="-720.72" x2="-276.98" y2="1484.09"/>
		<line class="st2" x1="-394.94" y1="-727.57" x2="-293.25" y2="1499.08"/>
		<line class="st2" x1="-404.9" y1="-734.43" x2="-309.53" y2="1514.06"/>
		<line class="st2" x1="-414.86" y1="-741.28" x2="-325.81" y2="1529.05"/>
		<line class="st2" x1="-424.82" y1="-748.14" x2="-342.08" y2="1544.04"/>
		<line class="st2" x1="-434.78" y1="-754.99" x2="-358.36" y2="1559.03"/>
		<line class="st2" x1="-444.75" y1="-761.85" x2="-374.63" y2="1574.02"/>
		<line class="st2" x1="-454.71" y1="-768.71" x2="-390.91" y2="1589"/>
		<line class="st2" x1="-464.67" y1="-775.56" x2="-407.19" y2="1603.99"/>
		<line class="st2" x1="-474.63" y1="-782.42" x2="-423.46" y2="1618.98"/>
		<line class="st2" x1="-484.59" y1="-789.27" x2="-439.74" y2="1633.97"/>
		<line class="st2" x1="-494.55" y1="-796.13" x2="-456.02" y2="1648.96"/>
		<line class="st2" x1="-504.51" y1="-802.98" x2="-472.29" y2="1663.94"/>
		<line class="st2" x1="-514.47" y1="-809.84" x2="-488.57" y2="1678.93"/>
		<line class="st2" x1="-524.44" y1="-816.7" x2="-504.84" y2="1693.92"/>
		<line class="st2" x1="-534.4" y1="-823.55" x2="-521.12" y2="1708.91"/>
		<line class="st2" x1="-544.36" y1="-830.41" x2="-537.4" y2="1723.9"/>
		<line class="st2" x1="-554.32" y1="-837.26" x2="-553.67" y2="1738.89"/>
		<line class="st2" x1="-564.28" y1="-844.12" x2="-569.95" y2="1753.87"/>
		<line class="st2" x1="-574.24" y1="-850.97" x2="-586.22" y2="1768.86"/>
		<line class="st2" x1="-584.2" y1="-857.83" x2="-602.5" y2="1783.85"/>
		<line class="st2" x1="-594.16" y1="-864.69" x2="-618.78" y2="1798.84"/>
		<line class="st2" x1="-604.13" y1="-871.54" x2="-635.05" y2="1813.83"/>
		<line class="st2" x1="-614.09" y1="-878.4" x2="-651.33" y2="1828.81"/>
		<line class="st2" x1="-624.05" y1="-885.25" x2="-667.61" y2="1843.8"/>
		<line class="st2" x1="-634.01" y1="-892.11" x2="-683.88" y2="1858.79"/>
		<line class="st2" x1="-643.97" y1="-898.96" x2="-700.16" y2="1873.78"/>
		<line class="st2" x1="-653.93" y1="-905.82" x2="-716.43" y2="1888.77"/>
		<line class="st2" x1="-663.89" y1="-912.68" x2="-732.71" y2="1903.75"/>
		<line class="st2" x1="-673.85" y1="-919.53" x2="-748.99" y2="1918.74"/>
		<line class="st2" x1="-683.82" y1="-926.39" x2="-765.26" y2="1933.73"/>
		<line class="st2" x1="-693.78" y1="-933.24" x2="-781.54" y2="1948.72"/>
		<line class="st2" x1="-703.74" y1="-940.1" x2="-797.81" y2="1963.71"/>
		<line class="st2" x1="-713.7" y1="-946.95" x2="-814.09" y2="1978.69"/>
		<line class="st2" x1="-723.66" y1="-953.81" x2="-830.37" y2="1993.68"/>
		<line class="st2" x1="-733.62" y1="-960.67" x2="-846.64" y2="2008.67"/>
		<line class="st2" x1="-743.58" y1="-967.52" x2="-862.92" y2="2023.66"/>
		<line class="st2" x1="-753.54" y1="-974.38" x2="-879.2" y2="2038.65"/>
		<line class="st2" x1="-763.5" y1="-981.23" x2="-895.47" y2="2053.63"/>
		<line class="st2" x1="-773.47" y1="-988.09" x2="-911.75" y2="2068.62"/>
		<line class="st2" x1="-783.43" y1="-994.94" x2="-928.02" y2="2083.61"/>
		<line class="st2" x1="-793.39" y1="-1001.8" x2="-944.3" y2="2098.6"/>
		<line class="st2" x1="-803.35" y1="-1008.66" x2="-960.58" y2="2113.59"/>
		<line class="st2" x1="-813.31" y1="-1015.51" x2="-976.85" y2="2128.57"/>
		<line class="st2" x1="-823.27" y1="-1022.37" x2="-993.13" y2="2143.56"/>
		<line class="st2" x1="-833.23" y1="-1029.22" x2="-1009.4" y2="2158.55"/>
		<line class="st2" x1="-843.19" y1="-1036.08" x2="-1025.68" y2="2173.54"/>
		<line class="st2" x1="-853.16" y1="-1042.93" x2="-1041.96" y2="2188.53"/>
	</g>
	<g class="st1">
		<line class="st2" x1="772.92" y1="518.38" x2="2024.01" y2="316.04"/>
		<line class="st2" x1="766.56" y1="508.44" x2="2021.74" y2="310.75"/>
		<line class="st2" x1="760.19" y1="498.5" x2="2019.47" y2="305.46"/>
		<line class="st2" x1="753.83" y1="488.56" x2="2017.2" y2="300.17"/>
		<line class="st2" x1="747.47" y1="478.62" x2="2014.93" y2="294.88"/>
		<line class="st2" x1="741.1" y1="468.68" x2="2012.66" y2="289.59"/>
		<line class="st2" x1="734.74" y1="458.74" x2="2010.39" y2="284.3"/>
		<line class="st2" x1="728.38" y1="448.81" x2="2008.12" y2="279.01"/>
		<line class="st2" x1="722.01" y1="438.87" x2="2005.85" y2="273.72"/>
		<line class="st2" x1="715.65" y1="428.93" x2="2003.58" y2="268.43"/>
		<line class="st2" x1="709.28" y1="418.99" x2="2001.3" y2="263.14"/>
		<line class="st2" x1="702.92" y1="409.05" x2="1999.03" y2="257.84"/>
		<line class="st2" x1="696.56" y1="399.11" x2="1996.76" y2="252.55"/>
		<line class="st2" x1="690.19" y1="389.17" x2="1994.49" y2="247.26"/>
		<line class="st2" x1="683.83" y1="379.24" x2="1992.22" y2="241.97"/>
		<line class="st2" x1="677.46" y1="369.3" x2="1989.95" y2="236.68"/>
		<line class="st2" x1="671.1" y1="359.36" x2="1987.68" y2="231.39"/>
		<line class="st2" x1="664.74" y1="349.42" x2="1985.41" y2="226.1"/>
		<line class="st2" x1="658.37" y1="339.48" x2="1983.14" y2="220.81"/>
		<line class="st2" x1="652.01" y1="329.54" x2="1980.87" y2="215.52"/>
		<line class="st2" x1="645.64" y1="319.6" x2="1978.6" y2="210.23"/>
		<line class="st2" x1="639.28" y1="309.67" x2="1976.33" y2="204.94"/>
		<line class="st2" x1="632.92" y1="299.73" x2="1974.06" y2="199.64"/>
		<line class="st2" x1="626.55" y1="289.79" x2="1971.79" y2="194.35"/>
		<line class="st2" x1="620.19" y1="279.85" x2="1969.51" y2="189.06"/>
		<line class="st2" x1="613.82" y1="269.91" x2="1967.24" y2="183.77"/>
		<line class="st2" x1="607.46" y1="259.97" x2="1964.97" y2="178.48"/>
		<line class="st2" x1="601.1" y1="250.03" x2="1962.7" y2="173.19"/>
		<line class="st2" x1="594.73" y1="240.1" x2="1960.43" y2="167.9"/>
		<line class="st2" x1="588.37" y1="230.16" x2="1958.16" y2="162.61"/>
		<line class="st2" x1="582.01" y1="220.22" x2="1955.89" y2="157.32"/>
		<line class="st2" x1="575.64" y1="210.28" x2="1953.62" y2="152.03"/>
		<line class="st2" x1="569.28" y1="200.34" x2="1951.35" y2="146.74"/>
		<line class="st2" x1="562.91" y1="190.4" x2="1949.08" y2="141.45"/>
		<line class="st2" x1="556.55" y1="180.46" x2="1946.81" y2="136.15"/>
		<line class="st2" x1="550.19" y1="170.53" x2="1944.54" y2="130.86"/>
		<line class="st2" x1="543.82" y1="160.59" x2="1942.27" y2="125.57"/>
		<line class="st2" x1="537.46" y1="150.65" x2="1940" y2="120.28"/>
		<line class="st2" x1="531.09" y1="140.71" x2="1937.72" y2="114.99"/>
		<line class="st2" x1="524.73" y1="130.77" x2="1935.45" y2="109.7"/>
		<line class="st2" x1="518.37" y1="120.83" x2="1933.18" y2="104.41"/>
		<line class="st2" x1="512" y1="110.89" x2="1930.91" y2="99.12"/>
		<line class="st2" x1="505.64" y1="100.96" x2="1928.64" y2="93.83"/>
		<line class="st2" x1="499.27" y1="91.02" x2="1926.37" y2="88.54"/>
		<line class="st2" x1="492.91" y1="81.08" x2="1924.1" y2="83.25"/>
		<line class="st2" x1="486.55" y1="71.14" x2="1921.83" y2="77.96"/>
		<line class="st2" x1="480.18" y1="61.2" x2="1919.56" y2="72.66"/>
		<line class="st2" x1="473.82" y1="51.26" x2="1917.29" y2="67.37"/>
		<line class="st2" x1="467.45" y1="41.32" x2="1915.02" y2="62.08"/>
		<line class="st2" x1="461.09" y1="31.39" x2="1912.75" y2="56.79"/>
		<line class="st2" x1="454.73" y1="21.45" x2="1910.48" y2="51.5"/>
		<line class="st2" x1="448.36" y1="11.51" x2="1908.21" y2="46.21"/>
		<line class="st2" x1="442" y1="1.57" x2="1905.93" y2="40.92"/>
		<line class="st2" x1="435.64" y1="-8.37" x2="1903.66" y2="35.63"/>
		<line class="st2" x1="429.27" y1="-18.31" x2="1901.39" y2="30.34"/>
		<line class="st2" x1="422.91" y1="-28.25" x2="1899.12" y2="25.05"/>
		<line class="st2" x1="416.54" y1="-38.18" x2="1896.85" y2="19.76"/>
		<line class="st2" x1="410.18" y1="-48.12" x2="1894.58" y2="14.46"/>
		<line class="st2" x1="403.82" y1="-58.06" x2="1892.31" y2="9.17"/>
		<line class="st2" x1="397.45" y1="-68" x2="1890.04" y2="3.88"/>
		<line class="st2" x1="391.09" y1="-77.94" x2="1887.77" y2="-1.41"/>
		<line class="st2" x1="384.72" y1="-87.88" x2="1885.5" y2="-6.7"/>
		<line class="st2" x1="378.36" y1="-97.82" x2="1883.23" y2="-11.99"/>
		<line class="st2" x1="372" y1="-107.75" x2="1880.96" y2="-17.28"/>
		<line class="st2" x1="365.63" y1="-117.69" x2="1878.69" y2="-22.57"/>
		<line class="st2" x1="359.27" y1="-127.63" x2="1876.42" y2="-27.86"/>
		<line class="st2" x1="352.9" y1="-137.57" x2="1874.14" y2="-33.15"/>
		<line class="st2" x1="346.54" y1="-147.51" x2="1871.87" y2="-38.44"/>
		<line class="st2" x1="340.18" y1="-157.45" x2="1869.6" y2="-43.73"/>
		<line class="st2" x1="333.81" y1="-167.38" x2="1867.33" y2="-49.03"/>
		<line class="st2" x1="327.45" y1="-177.32" x2="1865.06" y2="-54.32"/>
		<line class="st2" x1="321.09" y1="-187.26" x2="1862.79" y2="-59.61"/>
		<line class="st2" x1="314.72" y1="-197.2" x2="1860.52" y2="-64.9"/>
		<line class="st2" x1="308.36" y1="-207.14" x2="1858.25" y2="-70.19"/>
		<line class="st2" x1="301.99" y1="-217.08" x2="1855.98" y2="-75.48"/>
		<line class="st2" x1="295.63" y1="-227.02" x2="1853.71" y2="-80.77"/>
		<line class="st2" x1="289.27" y1="-236.95" x2="1851.44" y2="-86.06"/>
		<line class="st2" x1="282.9" y1="-246.89" x2="1849.17" y2="-91.35"/>
		<line class="st2" x1="276.54" y1="-256.83" x2="1846.9" y2="-96.64"/>
		<line class="st2" x1="270.17" y1="-266.77" x2="1844.63" y2="-101.93"/>
		<line class="st2" x1="263.81" y1="-276.71" x2="1842.35" y2="-107.22"/>
		<line class="st2" x1="257.45" y1="-286.65" x2="1840.08" y2="-112.52"/>
	</g>
</g>
</svg>
