<svg width="13" height="1190" viewBox="0 0 13 1190" fill="none" xmlns="http://www.w3.org/2000/svg">
<path fill-rule="evenodd" clip-rule="evenodd" d="M11.25 502.5L11.25 603.5V659.5L11.25 912.5C11.25 921.879 9.67991 925.982 8.08555 930.149L8.03298 930.286C6.39326 934.572 4.75 938.977 4.75 949C4.75 953.408 5.15923 956.533 5.78043 959.028C6.38897 961.472 7.19755 963.296 7.99368 965.091L8.04289 965.202C8.80266 966.915 9.54913 968.619 10.132 970.868C9.55751 973.302 8.82414 975.218 8.08555 977.149L8.03298 977.286C6.39326 981.572 4.75 985.977 4.75 996C4.75 1000.41 5.15923 1003.53 5.78043 1006.03C6.38897 1008.47 7.19755 1010.3 7.99368 1012.09L8.04289 1012.2C8.85416 1014.03 9.65027 1015.85 10.2482 1018.33C10.8457 1020.81 11.2489 1023.98 11.2499 1028.48C11.2499 1028.49 11.2499 1028.49 11.2499 1028.5L11.2499 1143V1190H12.2499V1143L12.2499 1028.5C12.2499 1028.49 12.2499 1028.49 12.2499 1028.48L12.2499 981.5C12.25 976.926 11.841 973.677 11.2204 971.099C11.2009 971.018 11.1811 970.937 11.1611 970.857C11.8111 968.015 12.25 964.482 12.25 959.5V912.5L12.25 659.5V603.5L12.25 502.5C12.25 502.492 12.25 502.484 12.25 502.477L12.25 446.5C12.25 424.695 9.616 414.63 6.97949 405.708C6.8261 405.189 6.67274 404.674 6.51995 404.16L6.51945 404.159C6.28382 403.367 6.04954 402.58 5.8185 401.79C5.86445 401.624 5.91052 401.457 5.95671 401.29C6.29448 400.067 6.63849 398.822 6.98297 397.535C9.6179 387.696 12.25 375.549 12.25 353V297L12.25 56V0H11.25V56L11.25 297C11.25 319.451 8.63207 331.512 6.01701 341.277C5.67461 342.555 5.33176 343.796 4.99441 345.017C2.75032 353.137 0.75 360.376 0.75 372C0.75 386.546 2.61982 394.379 4.7789 401.797C2.62384 409.607 0.75 416.75 0.75 428C0.75 444.283 3.09308 452.154 5.56211 460.448C5.7146 460.96 5.86756 461.474 6.02048 461.991C8.63303 470.833 11.2481 480.798 11.25 502.477C11.25 502.484 11.25 502.492 11.25 502.5ZM11.25 482.117L11.25 446.5C11.25 424.805 8.63397 414.836 6.02048 405.991C5.86756 405.474 5.7146 404.96 5.56211 404.448C5.47987 404.171 5.39776 403.896 5.31587 403.62C3.354 410.819 1.75 417.628 1.75 428C1.75 444.139 4.06184 451.904 6.51945 460.159L6.51995 460.16C6.67274 460.674 6.8261 461.189 6.97949 461.708C8.61231 467.234 10.2442 473.198 11.25 482.117ZM5.28945 399.948C5.53078 399.072 5.77401 398.184 6.01701 397.277C8.63207 387.512 11.25 375.451 11.25 353L11.25 318.683C10.2448 328.466 8.61443 335.443 6.98297 341.535C6.63849 342.822 6.29448 344.067 5.95671 345.29C3.7158 353.402 1.75 360.518 1.75 372C1.75 385.395 3.34268 393.022 5.28945 399.948ZM11.25 923.458C10.6416 926.267 9.82638 928.397 9.0095 930.532L8.96697 930.643C7.35672 934.852 5.75 939.133 5.75 949C5.75 953.345 6.15327 956.386 6.75081 958.786C7.33816 961.146 8.11664 962.901 8.91504 964.702L8.95706 964.796C9.50661 966.036 10.0631 967.3 10.5577 968.784C10.9831 966.337 11.25 963.367 11.25 959.5L11.25 923.458ZM10.5988 973.003C10.1119 974.651 9.5611 976.09 9.0095 977.532L8.96697 977.643C7.35672 981.852 5.75 986.133 5.75 996C5.75 1000.34 6.15327 1003.39 6.75081 1005.79C7.33816 1008.15 8.11664 1009.9 8.91504 1011.7L8.95706 1011.8C9.77078 1013.63 10.5997 1015.52 11.2204 1018.1C11.2303 1018.14 11.2402 1018.18 11.2499 1018.22L11.2499 981.5C11.2499 977.939 10.9987 975.215 10.5988 973.003Z" fill="url(#paint0_linear)"/>
<defs>
<linearGradient id="paint0_linear" x1="6.5" y1="0" x2="6.5" y2="1190" gradientUnits="userSpaceOnUse">
<stop stop-color="#BDBDBD"/>
<stop offset="1" stop-color="#BDBDBD" stop-opacity="0"/>
</linearGradient>
</defs>
</svg>
