<svg width="226" height="154" viewBox="0 0 226 154" fill="none" xmlns="http://www.w3.org/2000/svg">
<path d="M43.368 17.6011L42.1904 13.4214L52.1439 9.9502L53.7872 13.9652L53.0344 14.2268C52.3373 12.8953 50.9693 11.1876 49.2674 11.7813C49.0858 11.8431 48.79 12.0135 48.8544 12.2457C48.9101 12.4633 48.9921 12.6896 49.0653 12.9012L51.7133 20.5462C51.9037 21.0899 51.9506 21.2281 52.5482 21.1017C52.9407 21.0165 53.3215 20.8489 53.7023 20.7343L53.9806 21.5338L47.8966 23.6559L47.6183 22.8564C48.0694 22.6977 48.4912 22.5037 48.9101 22.3039C49.0272 22.2451 49.1385 22.0364 49.1063 21.8953C49.118 21.6866 49.0302 21.4838 48.9687 21.3016L46.3763 13.8212C46.3031 13.6096 46.2269 13.3803 46.1361 13.1775C46.0424 12.9541 45.7055 13.0041 45.5239 13.0658C43.8367 13.6566 43.8308 15.9257 44.1003 17.3395L43.368 17.6011Z" fill="white"/>
<path d="M53.5322 9.48293L59.4522 7.91337L59.666 8.73342C59.4346 8.79514 58.4973 8.99207 58.2571 9.2713C58.178 9.54171 58.2571 9.8327 58.3303 10.1119L59.1593 13.2687L63.2895 12.1753L62.4839 9.11258C62.4312 8.90977 62.3931 8.70403 62.3141 8.52767C62.2584 8.44537 62.2291 8.33662 62.1324 8.28078C61.8395 8.10736 60.8963 8.40716 60.6502 8.47183L60.4364 7.65178L66.2949 6.09985L66.5116 6.9199L65.337 7.28143C64.9181 7.50775 65.1408 8.04564 65.2316 8.38365L67.1063 15.5143C67.1854 15.8082 67.2791 16.1139 67.3728 16.4019C67.4431 16.6135 67.5779 16.6811 67.7946 16.69C68.2223 16.6253 68.6353 16.5636 69.0483 16.4401L69.2622 17.2602L63.3744 18.818L63.1577 17.9979C63.31 17.9597 64.013 17.7393 64.2942 17.6158C64.7863 17.4189 64.4787 16.69 64.3821 16.3196L63.5531 13.1629L59.4229 14.2563L60.3251 17.6893C60.4306 18.092 60.5594 18.5887 61.0516 18.5064C61.3005 18.4565 61.9889 18.3095 62.1734 18.2595L62.3873 19.0796L56.4702 20.6462L56.2535 19.8261L57.2699 19.5557C57.4867 19.4999 57.7474 19.3647 57.6947 19.0972C57.6361 18.815 57.6009 18.5593 57.5453 18.2772L55.5856 10.8203C55.5036 10.5117 55.4479 10.0473 55.032 10.0414C54.6043 10.0384 54.1708 10.2207 53.749 10.3L53.5322 9.48293Z" fill="white"/>
<path d="M80.2905 15.185L69.6398 17.2131L69.4816 16.3813C69.8946 16.252 70.9872 16.2726 71.0165 15.6641C71.0458 15.4819 70.996 15.2938 70.9609 15.1057L69.4435 7.07271C69.423 6.96396 69.4113 6.81994 69.3322 6.73764C69.2414 6.59068 69.1623 6.52601 68.9837 6.52601C68.5413 6.51426 68.0902 6.61419 67.6509 6.69943L67.4927 5.86468L78.032 3.85718L78.9137 7.9251L78.1316 8.07206C77.0244 5.90583 76.0577 5.0799 73.5503 5.55606C73.1724 5.62954 72.7858 5.71772 72.4694 5.9411C72.3757 6.0381 72.2849 6.15567 72.279 6.30263C72.2175 6.57598 72.2878 6.85521 72.3376 7.12268L72.8971 10.0913C74.4701 9.92378 75.053 8.88329 74.9505 7.38721L75.7502 7.23437L76.8457 12.6926L75.9991 12.8542C75.6506 11.3581 74.6107 10.5792 73.0553 10.9231L73.7056 14.365C73.8374 15.0557 73.8667 15.3937 74.6488 15.3261C74.9358 15.3026 75.2229 15.282 75.507 15.2291C77.9822 14.7559 78.6472 13.4744 78.8756 11.0701L79.6724 10.9819L80.2905 15.185Z" fill="white"/>
<path d="M93.0036 9.05082L94.3071 4.94469L96.2111 8.78041L93.0036 9.05082ZM91.4862 10.3999C91.126 11.4551 90.6954 12.7954 89.4358 13.0306L89.5061 13.8741L94.064 13.4891L93.9937 12.6455C93.2467 12.7249 92.3885 12.5867 92.3123 11.6785C92.2654 11.123 92.5232 10.5704 92.6579 10.0796L96.7091 9.73861L97.5439 11.4816C97.6581 11.7138 97.8046 11.9254 97.6171 12.1664C97.4297 12.4074 96.8057 12.3957 96.5216 12.4368L96.5919 13.2804L102.154 12.8101L102.084 11.9636C101.018 12.0224 100.869 11.7784 100.412 10.8996L95.5637 1.53223L94.3715 1.63216L91.4862 10.3999Z" fill="white"/>
<path d="M109.035 12.6396L108.239 12.6573L104.384 2.38167H104.401L104.369 2.38461L104.51 9.57988C104.536 10.8908 104.715 11.9283 106.323 11.846L106.341 12.6925L101.815 12.7837L101.797 11.9342C103.247 11.8725 103.458 11.1641 103.479 9.88557L103.347 3.10472C103.341 2.83431 103.397 2.36697 103.121 2.19943C102.878 2.04365 102.336 2.08774 102.052 2.07598L101.654 2.0848L101.636 1.23536L106.8 1.13249L109.407 8.08969H109.44L111.66 1.03549L116.81 0.932617L116.824 1.78206L116.332 1.79382C115.981 1.7997 115.532 1.76149 115.298 2.0848C115.196 2.46984 115.237 2.86958 115.242 3.25462L115.395 10.9466C115.427 11.0436 115.415 11.1377 115.45 11.2347C115.553 11.7255 116.253 11.6315 116.622 11.6432L117.038 11.6344L117.056 12.4839L110.998 12.6014L110.98 11.7549L111.903 11.7344C112.014 11.6697 112.155 11.6667 112.266 11.6168C112.392 11.5639 112.486 11.4492 112.498 11.3229C112.574 11.1612 112.553 10.9848 112.551 10.8114L112.378 2.07892H112.345L109.035 12.6396Z" fill="white"/>
<path d="M128.254 13.0159L117.425 12.5427L117.463 11.6962C117.896 11.6638 118.951 11.9342 119.121 11.3493C119.191 11.1759 119.182 10.9849 119.191 10.7938L119.546 2.62858C119.548 2.51689 119.572 2.37286 119.513 2.27293C119.458 2.11127 119.396 2.02603 119.223 1.98782C118.796 1.87319 118.336 1.87025 117.888 1.84968L117.923 1.00317L128.644 1.47051L128.573 5.62955L127.777 5.59722C127.194 3.23112 126.441 2.20533 123.893 2.09657C123.509 2.07894 123.11 2.07894 122.753 2.22296C122.639 2.29644 122.522 2.38756 122.484 2.53158C122.363 2.78142 122.366 3.0724 122.355 3.34282L122.223 6.36142C123.796 6.55835 124.596 5.68246 124.839 4.20108L125.65 4.23635L125.471 9.80034L124.61 9.76213C124.613 8.22491 123.781 7.2285 122.185 7.20499L122.032 10.7056C122.003 11.411 121.956 11.7432 122.733 11.8578C123.017 11.899 123.304 11.946 123.591 11.9577C126.107 12.0694 127.047 10.9731 127.818 8.68343L128.611 8.78042L128.254 13.0159Z" fill="white"/>
<path d="M134.883 3.8661C134.915 3.54866 134.971 3.13717 135.293 2.99314C135.671 2.90497 136.081 2.96081 136.462 3.00196C137.906 3.14892 138.65 3.69268 138.492 5.23579C138.316 6.95525 137.376 7.37262 135.818 7.25799C135.387 7.23154 134.971 7.21978 134.546 7.161L134.883 3.8661ZM130.583 1.57349L130.498 2.41705L131.005 2.46996C131.368 2.52286 131.772 2.48465 132.015 2.78152C132.185 2.99314 132.042 3.7985 132.013 4.06597L131.26 11.4347C131.16 12.0842 131.134 12.3546 130.372 12.29C130.085 12.2753 129.78 12.2459 129.496 12.2136L129.411 13.0571L135.645 13.7008L135.733 12.8543L135.334 12.8132C135.068 12.7691 134.781 12.7544 134.514 12.6809C134.183 12.6309 134.095 12.5251 134.048 12.1989C134.051 12.0255 134.075 11.8315 134.089 11.658L134.464 7.99868L134.971 8.04865C135.211 8.07216 135.448 8.09862 135.683 8.13977C137.18 8.39254 137.162 9.35367 137.118 10.6999L137.086 11.661C137.071 12.287 137.118 12.9043 137.517 13.4098C137.956 13.9536 138.551 14.2416 139.251 14.3122C140.534 14.4445 141.729 14.0359 142.121 12.6956C142.23 12.4017 142.279 12.0842 142.312 11.7668L141.518 11.6845C141.418 12.1901 141.193 13.4686 140.416 13.0659C140.358 12.9983 140.317 12.9249 140.291 12.8602C140.167 12.5281 140.124 12.1518 140.08 11.7933L139.93 10.7645C139.752 9.37719 139.066 8.5542 137.795 8.13095L137.798 8.09862C139.523 8.14858 141.298 7.56073 141.5 5.5885C141.588 4.74493 141.216 3.80731 140.566 3.27237C139.795 2.66101 138.966 2.48171 138.029 2.36708L136.843 2.2113L130.583 1.57349Z" fill="white"/>
<path d="M142.323 14.4854L142.452 13.6477L143.442 13.8005C144.18 13.8329 144.174 13.4419 144.268 12.8276L145.437 5.14151C145.463 4.96515 145.489 4.79467 145.484 4.61538C145.431 4.41257 145.469 4.28912 145.258 4.19213C145.003 4.05692 144.702 4.04223 144.417 3.98344L143.928 3.90702L144.054 3.06934L150.185 4.00696L150.056 4.84464L149.552 4.76822C149.221 4.71825 148.805 4.58893 148.512 4.82113C148.422 4.88873 148.387 5.01218 148.34 5.1033C148.269 5.2532 148.255 5.44425 148.228 5.6206L147.024 13.5272C146.983 13.7829 146.928 14.1444 147.212 14.3031C147.285 14.3472 147.37 14.3414 147.443 14.3707C147.672 14.453 147.941 14.4824 148.193 14.5353L148.571 14.5912L148.445 15.4318L142.323 14.4854Z" fill="white"/>
<path d="M161.369 5.98212L162.025 6.11732L161.249 10.6438L160.437 10.5585C160.349 8.75971 159.728 6.44652 157.698 6.02915C156.793 5.84398 156.081 5.9733 155.387 6.58467C154.69 7.22542 154.494 7.77212 154.142 8.63038C153.914 9.20354 153.747 9.93835 153.624 10.5468C153.457 11.3609 153.378 12.1604 153.401 13.001C153.422 13.7888 153.518 14.3472 153.987 14.9997C154.447 15.617 155.036 15.9344 155.786 16.0843C157.783 16.4958 159.274 15.1673 159.977 13.4008L160.853 13.8093C159.67 16.5076 157.824 17.501 154.951 16.9102C153.293 16.5693 152.112 15.8051 151.201 14.3796C150.349 13.0628 150.211 11.4961 150.516 9.99419C150.844 8.36291 151.711 6.92268 153.102 5.99976C154.418 5.1268 155.926 4.83287 157.473 5.15031C158.58 5.37663 159.318 5.67644 160.147 6.48179C160.185 6.53764 160.256 6.59936 160.308 6.64639L161.369 5.98212Z" fill="white"/>
<path d="M165.405 14.4591L168.044 11.0584L168.51 15.3174L165.405 14.4591ZM163.516 15.1968C162.813 16.0639 161.949 17.1691 160.686 16.9516L160.464 17.7687L164.872 18.9914L165.095 18.1743C164.368 17.9921 163.61 17.5629 163.85 16.6841C163.999 16.1462 164.433 15.7171 164.726 15.2997L168.645 16.3843L168.827 18.3095C168.856 18.5652 168.917 18.8151 168.66 18.9767C168.402 19.1384 167.819 18.9091 167.538 18.8503L167.312 19.6674L172.687 21.1547L172.916 20.3376C171.893 20.0202 171.838 19.7409 171.712 18.7592L170.391 8.28962L169.237 7.96924L163.516 15.1968Z" fill="white"/>
<path d="M178.08 13.7037L176.062 19.3C175.608 20.5639 175.696 21.3105 177.063 21.8395L176.776 22.639L172.459 21.0694L172.746 20.2729C174.161 20.7197 174.506 20.4199 175.022 19.1266L177.436 12.4339C177.257 11.7579 176.773 11.2582 176.129 11.0231L176.416 10.2266L180.209 11.6051L183.546 20.6403L185.119 16.2785C185.564 15.044 185.359 14.3915 184.088 13.9124L184.375 13.1158L188.619 14.6531L188.332 15.4525C187.544 15.2821 186.917 15.1909 186.431 15.9698C186.191 16.3578 186.033 16.7958 185.875 17.2308L183.057 25.0521L182.125 24.7141L178.08 13.7037Z" fill="white"/>
<path d="M38.1715 128.431C40.4533 129.281 39.6068 132.37 38.9858 134.054C38.7895 134.592 38.5464 135.153 38.2711 135.641C37.5475 136.896 36.6102 138.51 34.8878 137.872C33.8391 137.484 33.2386 136.723 33.1859 135.588C33.142 134.554 33.4437 133.207 33.7981 132.246C34.4543 130.456 35.7314 127.526 38.1715 128.431ZM34.2844 138.451C35.8046 139.015 37.1902 139.068 38.7016 138.419C40.0901 137.84 41.3204 136.494 41.8359 135.097C42.3661 133.66 42.3105 132.085 41.7041 130.68C41.0216 129.163 39.8997 128.225 38.3648 127.652C37.0173 127.153 35.3594 127.173 34.0471 127.77C32.5825 128.419 31.5338 129.636 30.9861 131.118C30.4852 132.473 30.5496 134.119 31.1003 135.453C31.6861 136.864 32.8491 137.919 34.2844 138.451Z" fill="white"/>
<path d="M41.1714 140.711L41.4145 139.935L42.2904 140.212C42.4368 140.259 42.5686 140.3 42.7327 140.288C42.7854 140.276 42.8528 140.262 42.8967 140.229C42.9406 140.191 42.9729 140.138 43.0139 140.103C43.1281 139.894 43.2013 139.662 43.2687 139.445L45.5418 132.193C45.6238 131.932 45.7351 131.582 45.4568 131.394C45.2254 131.212 44.9091 131.138 44.6396 131.038L44.2588 130.918L44.5019 130.142L54.1361 133.184L53.0289 137.07L52.2995 136.84C52.4196 134.718 51.9187 133.352 49.7862 132.681C49.3791 132.552 48.925 132.361 48.4974 132.499C48.2367 132.611 48.1664 132.94 48.0931 133.178L47.147 136.197C48.6907 136.746 49.3351 136.226 50.0909 134.889L50.8349 135.121L49.2473 140.188L48.5032 139.956C48.5823 139.594 48.6438 139.195 48.5882 138.807C48.4505 137.763 48.0258 137.328 47.0474 137.02L46.9009 136.973L45.8816 140.223C45.6385 140.999 45.5828 141.173 46.4059 141.47L47.311 141.802L47.0679 142.578L41.1714 140.711Z" fill="white"/>
<path d="M52.0586 144.124L52.2666 143.339L53.1541 143.571C53.3006 143.61 53.4353 143.648 53.5994 143.624C53.6521 143.607 53.7195 143.592 53.7605 143.557C53.8015 143.518 53.8308 143.46 53.8718 143.427C53.9743 143.216 54.0388 142.978 54.0973 142.757L56.0336 135.409C56.1039 135.142 56.1976 134.783 55.9105 134.613C55.6733 134.436 55.354 134.383 55.0757 134.295L54.689 134.192L54.897 133.407L64.6631 135.997L63.7374 139.933L62.9963 139.736C63.0168 137.611 62.4544 136.267 60.2927 135.697C59.8796 135.588 59.4168 135.418 58.995 135.577C58.7402 135.697 58.6845 136.035 58.6201 136.267L57.8145 139.327C59.3817 139.812 60.0027 139.257 60.6969 137.884L61.4497 138.084L60.0964 143.222L59.3407 143.019C59.4051 142.657 59.449 142.255 59.3758 141.87C59.1883 140.835 58.746 140.421 57.753 140.156L57.6066 140.115L56.7366 143.413C56.5286 144.197 56.4817 144.377 57.3166 144.63L58.2363 144.921L58.0284 145.708L52.0586 144.124Z" fill="white"/>
<path d="M64.3998 143.016L65.1321 143.174C65.3606 145.017 66.3887 147.154 68.3923 147.592C69.4381 147.816 70.6683 147.566 70.932 146.349C71.1487 145.344 70.5336 144.785 69.6724 144.427L68.6413 143.98C67.578 143.53 66.6816 143.116 65.9025 142.225C65.2493 141.484 64.9534 140.444 65.1643 139.471C65.6623 137.161 67.742 136.449 69.8657 136.911C70.8236 137.12 71.632 137.578 72.3058 138.304L73.2724 137.746L73.9168 137.884L73.2636 141.861L72.5167 141.699C72.3087 139.974 71.3626 138.057 69.5054 137.652C68.5622 137.446 67.3554 137.672 67.121 138.769C66.8867 139.847 67.8094 140.362 68.6384 140.732L69.5435 141.117C71.5998 142.034 73.498 143.104 72.9326 145.735C72.71 146.769 72.0539 147.63 71.0989 148.13C70.2026 148.58 69.1246 148.568 68.1697 148.359C67.0917 148.127 66.1017 147.563 65.4104 146.707L64.2709 147.416L63.6118 147.275L64.3998 143.016Z" fill="white"/>
<path d="M75.1882 138.336L80.9881 139.283L80.8563 140.088C80.6307 140.05 79.7314 139.859 79.4122 140.009C79.2393 140.212 79.1925 140.5 79.1485 140.776L78.6476 143.865L82.6958 144.526L83.1821 141.526C83.2143 141.329 83.2612 141.135 83.2612 140.946C83.2465 140.849 83.2641 140.747 83.1996 140.655C83.0092 140.394 82.066 140.285 81.8229 140.247L81.9547 139.442L87.6931 140.379L87.5642 141.185L86.3925 141.038C85.9385 141.07 85.9238 141.628 85.8711 141.963L84.7404 148.95C84.6935 149.241 84.6584 149.547 84.6291 149.838C84.6086 150.049 84.6994 150.158 84.8869 150.249C85.2882 150.361 85.6719 150.47 86.082 150.525L85.9531 151.325L80.1825 150.387L80.3114 149.582C80.4637 149.608 81.1638 149.691 81.4568 149.691C81.9664 149.711 81.9811 148.953 82.0397 148.591L82.5406 145.499L78.4924 144.838L77.9475 148.201C77.8831 148.597 77.804 149.079 78.2668 149.206C78.507 149.259 79.1661 149.397 79.3477 149.426L79.2159 150.232L73.416 149.285L73.5478 148.48L74.5438 148.641C74.7547 148.674 75.0359 148.659 75.0945 148.403C75.156 148.133 75.2233 147.895 75.2819 147.624L76.4683 140.323C76.5181 140.018 76.6499 139.589 76.2896 139.424C75.9147 139.253 75.4665 139.242 75.0622 139.145L75.1882 138.336Z" fill="white"/>
<path d="M94.1431 141.617C96.5626 141.864 96.5158 145.067 96.3342 146.857C96.2756 147.419 96.1848 148.033 96.0383 148.571C95.6516 149.967 95.1449 151.769 93.317 151.584C92.2069 151.466 91.4365 150.878 91.0996 149.797C90.8009 148.809 90.754 147.428 90.8565 146.408C91.0498 144.509 91.5566 141.349 94.1431 141.617ZM92.8777 152.289C94.4917 152.451 95.845 152.16 97.1485 151.152C98.3465 150.238 99.2048 148.63 99.3542 147.145C99.5094 145.617 99.0613 144.106 98.121 142.898C97.084 141.605 95.763 140.976 94.1343 140.808C92.7048 140.661 91.1055 141.099 89.9836 142.005C88.727 143.004 88.0122 144.444 87.854 146.014C87.7076 147.451 88.1792 149.027 89.0462 150.182C89.969 151.407 91.3545 152.136 92.8777 152.289Z" fill="white"/>
<path d="M104.855 143.633C104.867 143.324 104.899 142.925 105.198 142.772C105.556 142.663 105.951 142.692 106.32 142.71C107.711 142.769 108.458 143.245 108.397 144.732C108.33 146.39 107.454 146.846 105.954 146.828C105.541 146.828 105.14 146.84 104.729 146.807L104.855 143.633ZM100.599 141.69L100.567 142.498L101.056 142.519C101.408 142.548 101.794 142.49 102.043 142.76C102.219 142.951 102.125 143.73 102.114 143.995L101.824 151.096C101.765 151.725 101.756 151.983 101.021 151.972C100.746 151.978 100.456 151.963 100.177 151.951L100.145 152.765L106.156 153.015L106.188 152.201L105.807 152.183C105.55 152.154 105.274 152.16 105.014 152.104C104.694 152.075 104.606 151.978 104.542 151.666C104.536 151.499 104.542 151.316 104.548 151.146L104.691 147.616L105.181 147.636C105.409 147.648 105.64 147.657 105.869 147.683C107.319 147.833 107.357 148.759 107.398 150.049L107.421 150.969C107.442 151.575 107.527 152.157 107.937 152.621C108.391 153.118 108.98 153.359 109.654 153.388C110.893 153.438 112.014 152.977 112.313 151.666C112.401 151.375 112.43 151.069 112.442 150.761L111.678 150.731C111.613 151.219 111.47 152.463 110.702 152.119C110.644 152.057 110.6 151.992 110.57 151.931C110.43 151.619 110.368 151.26 110.307 150.917L110.102 149.941C109.85 148.624 109.144 147.874 107.905 147.545V147.516C109.56 147.463 111.227 146.79 111.306 144.891C111.338 144.074 110.931 143.198 110.275 142.728C109.501 142.187 108.693 142.061 107.793 142.011L106.648 141.931L100.599 141.69Z" fill="white"/>
<path d="M123.4 153.056L112.996 153.256L112.981 152.442C113.394 152.389 114.422 152.58 114.548 152.01C114.607 151.842 114.589 151.654 114.586 151.472L114.437 143.627C114.437 143.518 114.448 143.38 114.387 143.289C114.32 143.139 114.258 143.063 114.091 143.036C113.675 142.954 113.233 142.974 112.805 142.983L112.791 142.169L123.09 141.972L123.271 145.961L122.507 145.978C121.804 143.747 121.025 142.81 118.576 142.857C118.207 142.866 117.826 142.886 117.492 143.048C117.386 143.127 117.281 143.218 117.252 143.359C117.149 143.606 117.17 143.88 117.179 144.144L117.231 147.045C118.749 147.142 119.466 146.249 119.607 144.82L120.389 144.809L120.55 150.149L119.724 150.167C119.633 148.691 118.775 147.786 117.246 147.862L117.31 151.225C117.322 151.901 117.299 152.224 118.048 152.283C118.324 152.312 118.602 152.339 118.877 152.333C121.297 152.283 122.129 151.178 122.732 148.941L123.497 148.988L123.4 153.056Z" fill="white"/>
<path d="M129.645 152.703L129.566 151.895C129.982 151.883 130.369 151.786 130.764 151.716C131.142 151.645 131.095 151.204 131.069 150.91L130.342 143.665C130.216 142.387 130.304 142.345 129.018 142.442L128.623 142.481L128.541 141.672L134.543 141.067L134.622 141.875L133.646 141.972C132.961 142.043 132.935 142.248 132.999 142.872L133.755 150.42C133.843 150.999 133.831 151.337 134.522 151.328C134.862 151.34 135.181 151.325 135.518 151.29C137.756 151.063 138.594 149.732 138.825 147.61L139.619 147.53L139.848 151.675L129.645 152.703Z" fill="white"/>
<path d="M151.31 149.867L141.037 151.534L140.908 150.734C141.307 150.623 142.355 150.672 142.399 150.088C142.431 149.908 142.387 149.729 142.358 149.55L141.11 141.802C141.093 141.693 141.084 141.555 141.011 141.476C140.926 141.334 140.853 141.267 140.683 141.264C140.258 141.237 139.821 141.326 139.403 141.393L139.271 140.588L149.441 138.942L150.179 142.863L149.426 142.989C148.419 140.879 147.514 140.062 145.097 140.456C144.734 140.514 144.359 140.588 144.048 140.797C143.958 140.888 143.867 140.996 143.858 141.138C143.791 141.396 143.849 141.667 143.89 141.925L144.35 144.788C145.867 144.668 146.453 143.689 146.389 142.249L147.162 142.122L148.07 147.386L147.256 147.519C146.96 146.073 145.982 145.302 144.479 145.588L145.015 148.909C145.123 149.573 145.144 149.897 145.897 149.852C146.175 149.841 146.45 149.826 146.723 149.782C149.11 149.394 149.781 148.18 150.062 145.881L150.827 145.82L151.31 149.867Z" fill="white"/>
<path d="M162.066 140.415L161.331 140.632C160.426 139.218 159.608 137.849 157.737 137.76C157.499 137.752 157.236 137.763 156.998 137.819C155.074 138.266 154.775 139.765 154.796 141.496C154.804 142.222 154.945 142.975 155.112 143.692C155.329 144.635 155.768 145.873 156.313 146.675C156.928 147.575 157.824 147.918 158.867 147.68C159.286 147.58 159.746 147.334 160.042 147.046C160.449 146.634 160.472 146.39 160.569 145.849C160.628 145.491 160.493 144.7 160.408 144.327C160.355 144.1 160.311 143.845 160.133 143.68C159.931 143.554 159.726 143.618 159.503 143.668L158.668 143.859L158.486 143.069L163.797 141.843L163.979 142.634C163.683 142.716 163.384 142.772 163.094 142.884C163.041 142.931 162.971 142.945 162.915 142.992C162.687 143.154 162.775 143.48 162.828 143.707L163.662 147.357L162.918 147.528L161.832 146.22C161.149 147.416 160.068 148.186 158.741 148.492C157.221 148.844 155.683 148.712 154.371 147.783C153.176 146.943 152.461 145.691 152.136 144.271C151.72 142.457 151.992 140.694 153.196 139.236C153.847 138.436 154.429 137.972 155.373 137.549C155.742 137.387 156.12 137.252 156.521 137.161C156.911 137.07 157.28 137.032 157.681 137.002C158.27 136.976 158.782 137.014 159.348 137.214C159.685 137.325 159.585 137.364 159.752 137.14L160.326 136.344L160.967 136.197L162.066 140.415Z" fill="white"/>
<path d="M175.845 143.551L165.88 146.561L165.648 145.782C166.032 145.614 167.072 145.526 167.043 144.944C167.052 144.762 166.987 144.591 166.931 144.415L164.679 136.899C164.65 136.796 164.623 136.661 164.538 136.591C164.436 136.461 164.357 136.403 164.187 136.423C163.765 136.453 163.346 136.599 162.933 136.72L162.699 135.941L172.561 132.964L173.809 136.755L173.077 136.976C171.803 135.015 170.795 134.324 168.452 135.039C168.1 135.142 167.737 135.268 167.459 135.515C167.377 135.618 167.301 135.735 167.312 135.876C167.277 136.144 167.371 136.405 167.45 136.655L168.282 139.43C169.767 139.113 170.221 138.063 169.972 136.646L170.719 136.417L172.312 141.52L171.522 141.758C171.041 140.365 169.969 139.727 168.519 140.212L169.483 143.433C169.676 144.08 169.741 144.4 170.479 144.253C170.754 144.203 171.024 144.153 171.287 144.074C173.604 143.374 174.114 142.081 174.088 139.765L174.837 139.603L175.845 143.551Z" fill="white"/>
<path d="M177.011 134.145L179.006 139.492C179.457 140.7 179.984 141.193 181.314 140.726L181.598 141.49L177.471 143.042L177.187 142.281C178.499 141.723 178.566 141.288 178.142 140.021L175.754 133.622C175.201 133.24 174.542 133.175 173.924 133.404L173.639 132.643L177.266 131.279L185.309 135.803L183.751 131.629C183.312 130.451 182.755 130.101 181.534 130.545L181.25 129.78L185.307 128.255L185.591 129.019C184.911 129.389 184.396 129.716 184.521 130.586C184.589 131.018 184.741 131.435 184.896 131.853L187.688 139.33L186.8 139.665L177.011 134.145Z" fill="white"/>
<path d="M189.976 127.99C189.899 127.823 189.747 127.52 189.829 127.332C189.979 126.994 190.433 126.771 190.641 126.674C192.55 125.806 193.707 126.424 194.826 128.09C195.16 128.596 195.427 129.116 195.673 129.657C195.825 129.995 195.969 130.348 196.08 130.703C196.739 132.867 196.766 134.304 194.481 135.347C194.273 135.444 193.904 135.594 193.558 135.529C193.268 135.374 193.133 134.968 193.004 134.689L189.976 127.99ZM194.891 136.056C195.825 135.629 197.009 135.089 197.715 134.348C198.541 133.498 199.036 132.261 199.036 131.065C199.036 130.104 198.763 129.131 198.365 128.252C197.764 126.923 196.886 125.871 195.524 125.28C194.923 125.03 194.194 124.942 193.529 124.96C192.744 124.963 192.123 125.192 191.408 125.507L190.099 126.068L185.347 128.231L185.684 128.972L186.018 128.822C186.294 128.693 186.578 128.531 186.885 128.511C187.146 128.49 187.272 128.619 187.366 128.831L190.652 136.085C190.728 136.255 190.819 136.414 190.831 136.596C190.851 136.673 190.849 136.773 190.81 136.843C190.793 136.917 190.734 136.976 190.684 137.02C190.348 137.24 189.958 137.416 189.583 137.587L189.917 138.328L194.891 136.056Z" fill="white"/>
<path d="M113.002 135.291C173.997 135.291 223.442 109.22 223.442 77.0444C223.442 44.8744 173.997 18.8003 113.002 18.8003C52.0093 18.8003 2.55225 44.8744 2.55225 77.0444C2.55225 109.22 52.0093 135.291 113.002 135.291Z" fill="white"/>
<path d="M113.001 136.911C83.2434 136.911 55.24 130.788 34.1525 119.666C12.7369 108.374 0.940918 93.2366 0.940918 77.0472C0.940918 60.8579 12.7369 45.7237 34.1554 34.4282C55.2429 23.309 83.2463 17.1836 113.004 17.1836C142.762 17.1836 170.763 23.306 191.847 34.4282C213.263 45.7207 225.056 60.8579 225.056 77.0472C225.056 93.2366 213.263 108.374 191.847 119.669C170.763 130.786 142.762 136.911 113.001 136.911ZM113.001 20.4226C52.9874 20.4226 4.16599 45.8236 4.16599 77.0472C4.16599 108.271 52.9903 133.675 113.001 133.675C173.009 133.675 221.831 108.271 221.831 77.0472C221.831 45.8236 173.012 20.4226 113.001 20.4226Z" fill="black"/>
<path d="M98.7331 28.4058H124.329V110.975L132.85 116.216V124.522H90.3584V116.795L98.7331 110.387V47.6402H90.3584L98.7331 28.4058Z" fill="#D12026"/>
<path d="M133.477 125.148H89.7346V116.483L98.1092 110.076V48.2663H89.4036L98.3231 27.7769H124.95V110.622L133.474 115.86V125.148H133.477ZM90.9824 123.896H132.226V116.566L123.702 111.328V29.0319H99.1432L91.3134 47.0142H99.36V110.699L90.9853 117.106V123.896H90.9824Z" fill="black"/>
<path d="M90.8561 127.206L92.1479 127.353L92.6723 129.633H92.684L93.6887 127.529L94.9834 127.676L94.6202 130.894L93.8205 130.803L94.1076 128.27H94.0959L92.9798 130.709L92.1509 130.618L91.5943 127.987L91.5826 127.984L91.2985 130.524L90.4988 130.433L90.8561 127.206Z" fill="black"/>
<path d="M94.7288 131.024L93.6919 130.906L93.9116 128.963L93.0562 130.833L92.0544 130.721L91.6238 128.69L91.4041 130.647L90.3672 130.53L90.7538 127.073L92.2477 127.241L92.7164 129.286L93.6186 127.397L95.1184 127.564L94.7288 131.024ZM93.9526 130.694L94.515 130.759L94.8518 127.779L93.7592 127.655L92.7574 129.751H92.5875L92.5524 129.657L92.0486 127.458L90.9618 127.335L90.6279 130.315L91.1903 130.38L91.4774 127.814L91.6824 127.884L91.7088 127.955L92.2477 130.5L92.9068 130.574L94.0199 128.143H94.2308L94.2279 128.275L93.9526 130.694Z" fill="black"/>
<path d="M96.7436 129.804L97.432 128.658L97.9183 129.907L96.7436 129.804ZM99.3975 131.324L97.9651 127.943L97.0483 127.861L95.0916 130.941L96.0143 131.024L96.4302 130.324L98.1438 130.48L98.4514 131.244L99.3975 131.324Z" fill="black"/>
<path d="M99.5881 131.462L98.3696 131.353L98.062 130.589L96.4978 130.448L96.0818 131.147L94.8896 131.038L96.9899 127.729L98.0503 127.826L99.5881 131.462ZM98.5365 131.129L99.2132 131.188L97.8862 128.058L97.1129 127.987L95.2997 130.841L95.95 130.9L96.366 130.201L98.226 130.368L98.5365 131.129ZM98.1001 130.042L96.5417 129.904L97.4556 128.384L98.1001 130.042ZM96.946 129.701L97.7398 129.772L97.4117 128.928L96.946 129.701Z" fill="black"/>
<path d="M101.323 128.757C102.163 128.81 102.775 128.854 102.705 129.927C102.635 130.965 102.105 130.956 101.44 130.912L100.792 130.871L100.936 128.734L101.323 128.757ZM100.107 128.128L99.8931 131.359L101.519 131.467C101.794 131.488 102.509 131.535 102.972 131.2C103.546 130.791 103.584 130.206 103.599 130.015C103.64 129.381 103.443 129.069 103.311 128.89C102.887 128.311 102.178 128.264 101.692 128.231L100.107 128.128Z" fill="black"/>
<path d="M101.861 131.6C101.712 131.6 101.586 131.591 101.51 131.585L99.7671 131.467L99.9956 127.996L101.697 128.108C102.201 128.143 102.948 128.193 103.405 128.816C103.572 129.042 103.757 129.383 103.716 130.021C103.698 130.236 103.651 130.859 103.039 131.294C102.688 131.553 102.204 131.6 101.861 131.6ZM100.019 131.247L101.525 131.347C101.759 131.364 102.462 131.417 102.898 131.103C103.423 130.733 103.461 130.212 103.475 130.015C103.511 129.454 103.361 129.169 103.212 128.963C102.822 128.431 102.166 128.387 101.689 128.355L100.218 128.258L100.019 131.247ZM101.782 131.047C101.665 131.047 101.545 131.038 101.434 131.032L100.666 130.982L100.825 128.605L101.331 128.637C101.867 128.672 102.333 128.702 102.603 129.01C102.778 129.213 102.852 129.516 102.825 129.936C102.796 130.371 102.685 130.665 102.485 130.841C102.292 131.009 102.04 131.047 101.782 131.047ZM100.918 130.759L101.446 130.794C101.841 130.821 102.137 130.827 102.324 130.662C102.474 130.533 102.559 130.289 102.582 129.921C102.606 129.569 102.553 129.322 102.421 129.172C102.216 128.937 101.797 128.91 101.314 128.878L101.044 128.86L100.918 130.759Z" fill="black"/>
<path d="M104.395 128.402L107.582 128.543L107.559 129.09L105.236 128.987L105.204 129.707L107.365 129.804L107.342 130.351L105.18 130.254L105.142 131.129L107.544 131.238L107.518 131.785L104.252 131.638L104.395 128.402Z" fill="black"/>
<path d="M107.632 131.908L104.129 131.753L104.284 128.278L107.711 128.431L107.676 129.216L105.353 129.113L105.333 129.595L107.495 129.692L107.459 130.477L105.298 130.38L105.268 131.015L107.67 131.124L107.632 131.908ZM104.375 131.523L107.404 131.658L107.418 131.353L105.016 131.244L105.066 130.13L107.228 130.227L107.243 129.921L105.081 129.824L105.122 128.863L107.445 128.966L107.459 128.66L104.51 128.528L104.375 131.523Z" fill="black"/>
<path d="M111.607 128.637L112.474 128.646L112.439 131.885L111.575 131.876L111.607 128.637Z" fill="black"/>
<path d="M112.553 132.002L111.449 131.991L111.487 128.51L112.591 128.522L112.553 132.002ZM111.692 131.755L112.319 131.761L112.354 128.763L111.727 128.757L111.692 131.755Z" fill="black"/>
<path d="M113.3 128.658L114.141 128.655L115.901 130.809H115.913L115.901 128.646L116.704 128.643L116.724 131.882L115.854 131.885L114.123 129.783H114.111L114.123 131.894L113.318 131.897L113.3 128.658Z" fill="black"/>
<path d="M113.2 132.017L113.183 128.537L114.199 128.531L115.796 130.483L115.787 128.522L116.83 128.516L116.85 131.996L115.802 132.002L114.234 130.104L114.246 132.011L113.2 132.017ZM113.423 128.775L113.438 131.773L114.003 131.77L113.991 129.66H114.167L114.214 129.704L115.91 131.761L116.604 131.758L116.587 128.76L116.021 128.763L116.03 130.927H115.854L115.804 130.882L114.079 128.772L113.423 128.775Z" fill="black"/>
<path d="M121.713 128.484L121.801 130.23C121.818 130.612 121.827 130.771 121.941 130.921C122.117 131.141 122.451 131.179 122.717 131.168C123.543 131.126 123.526 130.736 123.5 130.183L123.412 128.396L124.276 128.355L124.358 130.057C124.387 130.636 124.375 130.956 124.176 131.212C123.866 131.611 123.251 131.708 122.767 131.729C121.01 131.817 120.969 131 120.934 130.253L120.849 128.528L121.713 128.484Z" fill="black"/>
<path d="M122.521 131.855C121.915 131.855 121.487 131.735 121.215 131.488C120.857 131.162 120.834 130.683 120.816 130.259L120.726 128.413L121.827 128.361L121.921 130.227C121.938 130.618 121.947 130.735 122.038 130.85C122.193 131.044 122.53 131.059 122.715 131.05C123.423 131.015 123.409 130.738 123.382 130.192L123.289 128.284L124.393 128.231L124.481 130.051C124.51 130.6 124.51 130.985 124.273 131.285C124.003 131.632 123.514 131.817 122.776 131.846C122.685 131.852 122.603 131.855 122.521 131.855ZM120.978 128.64L121.057 130.245C121.074 130.638 121.095 131.047 121.379 131.306C121.637 131.541 122.094 131.641 122.764 131.605C123.421 131.576 123.863 131.417 124.085 131.135C124.255 130.918 124.273 130.641 124.244 130.059L124.167 128.478L123.544 128.507L123.626 130.174C123.652 130.721 123.678 131.235 122.732 131.282C122.445 131.297 122.064 131.256 121.856 130.991C121.716 130.809 121.707 130.63 121.689 130.23L121.607 128.604L120.978 128.64Z" fill="black"/>
<path d="M125.963 130.374C126.016 130.536 126.162 130.979 126.944 130.924C127.548 130.877 127.77 130.618 127.756 130.415C127.735 130.139 127.431 130.106 126.628 130.018C126.197 129.968 125.239 129.865 125.187 129.151C125.16 128.801 125.424 128.225 126.681 128.134C127.521 128.073 128.306 128.261 128.394 128.99L127.527 129.081C127.477 128.919 127.39 128.619 126.707 128.672C126.449 128.69 125.986 128.784 126.007 129.042C126.025 129.251 126.297 129.322 126.994 129.392C127.659 129.46 128.555 129.554 128.614 130.347C128.643 130.738 128.339 131.094 127.975 131.247C127.6 131.409 127.173 131.453 126.974 131.467C126.514 131.5 125.368 131.556 125.125 130.492L125.963 130.374Z" fill="black"/>
<path d="M126.687 131.6C125.74 131.6 125.178 131.238 125.014 130.521L124.985 130.395L126.048 130.242L126.08 130.336C126.13 130.489 126.241 130.853 126.938 130.803C127.469 130.762 127.65 130.553 127.641 130.424C127.63 130.256 127.387 130.224 126.619 130.139C126.165 130.086 125.128 129.965 125.072 129.163C125.064 129.04 125.078 128.796 125.283 128.555C125.547 128.246 126.019 128.064 126.678 128.017C127.762 127.937 128.435 128.287 128.52 128.975L128.535 129.095L127.451 129.21L127.422 129.116C127.375 128.966 127.305 128.749 126.725 128.793C126.514 128.807 126.247 128.869 126.156 128.972C126.133 128.998 126.13 129.022 126.133 129.037C126.142 129.163 126.479 129.222 127.015 129.275C127.677 129.342 128.675 129.442 128.743 130.339C128.772 130.75 128.479 131.168 128.031 131.359C127.621 131.535 127.146 131.576 126.991 131.588C126.883 131.597 126.783 131.6 126.687 131.6ZM125.28 130.594C125.535 131.362 126.358 131.394 126.968 131.35C127.111 131.338 127.559 131.3 127.931 131.138C128.224 131.015 128.523 130.718 128.497 130.356C128.45 129.713 127.785 129.592 126.985 129.513C126.32 129.445 125.916 129.381 125.89 129.051C125.884 128.963 125.913 128.881 125.972 128.81C126.153 128.602 126.578 128.558 126.701 128.549C127.36 128.496 127.539 128.757 127.612 128.948L128.254 128.881C128.081 128.249 127.214 128.214 126.689 128.252C125.948 128.305 125.609 128.528 125.459 128.707C125.31 128.881 125.298 129.054 125.307 129.139C125.351 129.748 126.215 129.848 126.631 129.895C127.495 129.989 127.847 130.027 127.876 130.403C127.896 130.686 127.618 130.991 126.953 131.041C126.2 131.088 125.972 130.721 125.884 130.503L125.28 130.594Z" fill="black"/>
<path d="M130.422 129.839L130.882 128.581L131.593 129.724L130.422 129.839ZM133.307 130.835L131.271 127.784L130.357 127.876L129.007 131.264L129.93 131.173L130.208 130.409L131.918 130.239L132.364 130.929L133.307 130.835Z" fill="black"/>
<path d="M128.825 131.406L130.275 127.767L131.333 127.661L131.371 127.72L133.518 130.935L132.305 131.059L131.86 130.368L130.296 130.524L130.017 131.288L128.825 131.406ZM130.442 127.99L129.191 131.129L129.842 131.065L130.12 130.301L131.977 130.115L132.422 130.806L133.093 130.739L131.207 127.914L130.442 127.99ZM130.243 129.977L130.852 128.311L131.795 129.824L130.243 129.977ZM130.911 128.852L130.6 129.701L131.391 129.622L130.911 128.852Z" fill="black"/>
<path d="M28.1331 65.643H29.4718L29.7588 74.8282L28.1302 74.9899C27.2368 71.501 25.0984 67.2126 20.9536 67.2126C19.1052 67.2126 17.7637 67.7534 16.6476 69.226C15.5316 70.7632 15.3705 71.9154 15.0219 73.7407C14.7993 74.9575 14.7671 76.4624 14.7671 77.7087C14.7671 79.3752 14.9282 80.9771 15.309 82.6054C15.6576 84.1427 16.0735 85.1979 17.254 86.2854C18.4052 87.3112 19.6794 87.6933 21.2114 87.6933C25.2947 87.6933 27.6879 84.4924 28.3587 80.7478L30.2392 81.1975C28.9943 86.9526 25.7722 89.6479 19.9049 89.6479C16.5246 89.6479 13.9088 88.6221 11.5479 86.1913C9.348 83.9487 8.45459 80.9389 8.45459 77.8674C8.45459 74.5372 9.57062 71.3687 11.9316 69.0026C14.1666 66.76 17.005 65.5754 20.1627 65.5754C22.427 65.5754 23.9883 65.8635 25.9362 67.1097C26.0299 67.2097 26.191 67.3067 26.3199 67.3684L28.1331 65.643Z" fill="black"/>
<path d="M32.8872 89.1658V87.4698H34.8967C36.3642 87.3111 36.2382 86.5439 36.2382 85.2948V69.7402C36.2382 69.3875 36.2382 69.0348 36.1738 68.6851C36.0156 68.3029 36.0478 68.0443 35.5997 67.915C35.0578 67.7239 34.4485 67.7886 33.8773 67.7563H32.8872V66.0603H45.2954V67.7563H44.276C43.6053 67.7563 42.7441 67.6269 42.2344 68.1736C42.0733 68.3323 42.041 68.591 41.9766 68.782C41.8799 69.0995 41.9122 69.4875 41.9122 69.8372V85.8444C41.9122 86.3558 41.9122 87.0906 42.5185 87.317C42.6767 87.3787 42.8378 87.3464 42.996 87.3787C43.4734 87.4757 44.0153 87.4463 44.528 87.4757H45.2954V89.1716H32.8872V89.1658Z" fill="black"/>
<path d="M69.3769 74.7959L67.7834 74.8958C66.6029 71.595 65.5836 68.4265 61.8195 67.3713C61.342 67.242 60.8001 67.145 60.2875 67.145C56.172 67.145 54.8626 70.0578 54.0981 73.5819C53.7788 75.0545 53.7143 76.6535 53.7143 78.1907C53.7143 80.207 54.0336 82.9258 54.7659 84.8128C55.5949 86.9261 57.2528 88.043 59.4878 88.043C60.3812 88.043 61.4328 87.755 62.1681 87.3112C63.1874 86.6734 63.3486 86.1943 63.7938 85.1302C64.0809 84.4307 64.1775 82.7671 64.1775 81.9676C64.1775 81.4826 64.2097 80.9418 63.9227 80.5244C63.5712 80.1747 63.1259 80.207 62.6455 80.207H60.8587V78.5052H72.2153V80.207C71.5767 80.2364 70.9382 80.207 70.3025 80.2981C70.1736 80.3657 70.0155 80.3657 69.8866 80.4274C69.3447 80.6508 69.3769 81.3533 69.3769 81.8353V89.6479H67.7834L66.187 86.4764C64.242 88.5897 61.6877 89.6479 58.8493 89.6479C55.5949 89.6479 52.5339 88.6515 50.2989 86.156C48.2572 83.884 47.396 81.0035 47.396 77.9644C47.396 74.0934 48.7669 70.6339 51.8924 68.2325C53.5854 66.9187 54.9856 66.2485 57.0947 65.8311C57.9236 65.6724 58.7526 65.5784 59.6138 65.5784C60.4428 65.5784 61.2102 65.6754 62.0392 65.8047C63.2519 66.0251 64.2713 66.3455 65.3228 67.0186C65.9614 67.4066 65.7388 67.436 66.184 67.0509L67.716 65.7077H69.0869L69.3769 74.7959Z" fill="black"/>
<path d="M79.9392 80.1423L83.2229 72.174L86.3806 80.1423H79.9392ZM76.6819 82.576C75.7885 84.6218 74.7047 87.2142 72.1533 87.4699V89.1658H81.3101V87.4699C79.8103 87.5022 78.1202 87.0848 78.1202 85.2596C78.1202 84.1427 78.7265 83.0845 79.078 82.1263H87.2125L88.5833 85.7387C88.7767 86.2236 89.0286 86.6733 88.6156 87.1172C88.2025 87.5639 86.9576 87.4376 86.3835 87.4669V89.1629H97.5468V87.4669C95.4084 87.4052 95.1565 86.8967 94.3891 85.0715L86.2839 65.5784H83.8907L76.6819 82.576Z" fill="black"/>
<path d="M106.604 69.7402C106.604 69.0995 106.636 68.2677 107.243 67.915C107.975 67.6593 108.804 67.6945 109.571 67.6945C112.474 67.6945 114.071 68.6204 114.071 71.7242C114.071 75.1837 112.284 76.2036 109.158 76.3036C108.297 76.333 107.468 76.3947 106.607 76.3624V69.7402H106.604ZM97.5762 66.0603V67.7562H98.5985C99.3308 67.7886 100.13 67.6269 100.672 68.1736C101.053 68.5557 100.927 70.1899 100.927 70.7337V85.5563C100.863 86.8643 100.863 87.411 99.3308 87.4433C98.7567 87.4727 98.1503 87.4727 97.5762 87.4727V89.1687H110.113V87.4727H109.317C108.775 87.4433 108.2 87.4727 107.659 87.3757C106.988 87.3434 106.797 87.1553 106.636 86.5145C106.604 86.1589 106.604 85.7797 106.604 85.427V78.0671H107.626C108.104 78.0671 108.584 78.0671 109.062 78.0965C112.093 78.2876 112.252 80.2128 112.442 82.8993L112.571 84.8215C112.668 86.0707 112.89 87.2846 113.784 88.2134C114.774 89.2039 116.019 89.6566 117.422 89.6566C120.005 89.6566 122.302 88.5985 122.814 85.8473C122.975 85.2389 123.008 84.5981 123.008 83.9603H121.411C121.315 84.9802 121.121 87.5756 119.496 86.9378C119.37 86.8084 119.273 86.685 119.211 86.5557C118.892 85.9149 118.731 85.1801 118.573 84.4747L118.063 82.4584C117.425 79.7366 115.896 78.2317 113.28 77.6556V77.588C116.725 77.3323 120.137 75.7951 120.137 71.8271C120.137 70.1312 119.214 68.3382 117.808 67.4124C116.147 66.3542 114.457 66.1632 112.574 66.1338L110.184 66.0662H97.5762V66.0603Z" fill="black"/>
<path d="M145.138 89.1657H123.447V87.4698C124.308 87.3728 126.447 87.8225 126.734 86.6409C126.86 86.2853 126.831 85.9032 126.831 85.5211V69.1642C126.831 68.9378 126.863 68.6527 126.734 68.4587C126.605 68.1384 126.476 67.9796 126.128 67.912C125.266 67.721 124.341 67.7533 123.447 67.7533V66.0574H144.916L145.138 74.3784H143.542C142.168 69.7109 140.577 67.721 135.472 67.721C134.707 67.721 133.91 67.7533 133.207 68.0737C132.982 68.2324 132.759 68.4235 132.698 68.7115C132.472 69.2229 132.507 69.799 132.507 70.3457V76.3947C135.665 76.6534 137.194 74.8281 137.546 71.8506H139.174L139.3 82.9933H137.578C137.449 79.9159 135.697 77.9995 132.504 78.0907V85.1007C132.504 86.5086 132.44 87.1817 134.001 87.3375C134.575 87.4051 135.15 87.4668 135.724 87.4668C140.765 87.4668 142.552 85.1948 143.89 80.5567L145.487 80.6831L145.138 89.1657Z" fill="black"/>
<path d="M147.622 74.734L148.134 66.0603H169.216L169.696 74.734H168.103C167.655 71.7595 166.19 67.6269 162.584 67.6269C162.204 67.6269 161.533 67.7562 161.503 68.2353C161.468 68.685 161.468 69.1641 161.468 69.6109V85.8091C161.468 86.9583 161.468 87.2523 162.681 87.4081C163.478 87.505 164.31 87.4404 165.106 87.4698V89.1657H152.218V87.4698C153.173 87.4698 154.101 87.3728 155.024 87.2787C155.279 87.2493 155.63 86.929 155.663 86.6409C155.824 86.2559 155.791 85.8062 155.791 85.4241V69.5815C155.791 69.1318 155.791 68.6527 155.759 68.206C155.727 67.7239 155.056 67.5975 154.675 67.5975C151.102 67.5975 149.602 71.8829 149.189 74.734H147.622Z" fill="black"/>
<path d="M170.657 74.734L171.167 66.0603H192.255L192.729 74.734H191.136C190.687 71.7595 189.22 67.6269 185.617 67.6269C185.233 67.6269 184.565 67.7562 184.533 68.2353C184.504 68.685 184.504 69.1641 184.504 69.6109V85.8091C184.504 86.9583 184.504 87.2523 185.714 87.4081C186.51 87.505 187.342 87.4404 188.139 87.4698V89.1657H175.253V87.4698C176.211 87.4698 177.134 87.3728 178.063 87.2787C178.314 87.2493 178.666 86.929 178.701 86.6409C178.862 86.2559 178.83 85.8062 178.83 85.4241V69.5815C178.83 69.1318 178.83 68.6527 178.798 68.206C178.766 67.7239 178.095 67.5975 177.711 67.5975C174.14 67.5975 172.641 71.8829 172.225 74.734H170.657Z" fill="black"/>
<path d="M215.407 89.1657H193.719V87.4698C194.58 87.3728 196.716 87.8225 197.003 86.6409C197.129 86.2853 197.1 85.9032 197.1 85.5211V69.1642C197.1 68.9378 197.129 68.6527 197.003 68.4587C196.877 68.1384 196.748 67.9796 196.399 67.912C195.538 67.721 194.613 67.7533 193.719 67.7533V66.0574H215.188L215.407 74.3784H213.814C212.44 69.7109 210.849 67.721 205.744 67.721C204.979 67.721 204.18 67.7533 203.479 68.0737C203.257 68.2324 203.031 68.4235 202.97 68.7115C202.747 69.2229 202.774 69.799 202.774 70.3457V76.3947C205.934 76.6534 207.463 74.8281 207.818 71.8506H209.443L209.572 82.9933H207.85C207.721 79.9159 205.969 77.9995 202.776 78.0907V85.1007C202.776 86.5086 202.715 87.1817 204.279 87.3375C204.853 87.4051 205.424 87.4668 206.002 87.4668C211.04 87.4668 212.83 85.1948 214.165 80.5567L215.762 80.6831L215.407 89.1657Z" fill="black"/>
<path d="M53.8779 55.5115C53.708 55.5233 53.5234 55.5115 53.3535 55.5673C53.2744 55.6144 53.2627 55.5997 53.2188 55.682C53.1631 55.7378 53.1836 55.8436 53.1954 55.9112L53.2862 56.1758L54.6453 60.3877H54.6658L55.6032 57.422L55.2136 56.2316C55.1345 55.9906 55.1111 55.8877 54.95 55.6585C54.8709 55.5438 54.6863 55.5556 54.5633 55.535L54.4256 55.5115V54.906H57.803V55.5115C57.6302 55.5233 57.4369 55.4997 57.2758 55.5791C57.2289 55.5997 57.185 55.6467 57.1498 55.682C57.0707 55.8201 57.1498 55.9906 57.182 56.1405L58.427 60.3113H58.4504L59.3643 57.2398C59.4668 56.8841 59.5928 56.5402 59.5928 56.164C59.5928 55.6379 58.9659 55.5115 58.5558 55.5115V54.906H61.4089V55.5115C61.3532 55.5233 61.2947 55.535 61.239 55.5438C60.6239 55.7261 60.4188 56.3345 60.2343 56.8812L58.2161 63.3387H57.4047L55.9664 58.5654H55.943L54.4256 63.3387H53.5937L51.2884 56.311C51.2298 56.1493 51.1859 55.9641 51.0951 55.8172C50.9574 55.5086 50.7641 55.5321 50.477 55.5086H50.3745V54.9031H53.8779V55.5115Z" fill="black"/>
<path d="M66.2806 55.3293C68.0938 55.3293 68.3017 57.7101 68.3017 59.0504C68.3017 59.4737 68.2783 59.9322 68.208 60.3408C68.0264 61.4077 67.7862 62.7833 66.4153 62.7833C65.5834 62.7833 64.9653 62.4041 64.6373 61.6252C64.3414 60.9168 64.2037 59.8999 64.2037 59.1327C64.2037 57.7101 64.3414 55.3293 66.2806 55.3293ZM66.1429 63.3417C67.3527 63.3417 68.334 63.0213 69.2244 62.1748C70.0476 61.4077 70.5602 60.1497 70.5602 59.0387C70.5602 57.8924 70.1149 56.8048 69.327 55.9818C68.4599 55.1001 67.4347 54.7327 66.2132 54.7327C65.1411 54.7327 63.987 55.1794 63.2225 55.9348C62.3671 56.7696 61.9453 57.8924 61.9453 59.071C61.9453 60.1468 62.414 61.2813 63.1434 62.069C63.9167 62.9067 65.0005 63.3417 66.1429 63.3417Z" fill="black"/>
<path d="M74.4585 56.2199C74.4585 55.9906 74.4702 55.6937 74.687 55.5674C74.9477 55.4762 75.2435 55.4851 75.5189 55.4851C76.5558 55.4851 77.127 55.8172 77.127 56.9282C77.127 58.1627 76.4884 58.5301 75.3724 58.5654C75.0619 58.5771 74.766 58.6007 74.4585 58.5889V56.2199ZM71.2305 54.906V55.5115H71.5966C71.8603 55.5233 72.1444 55.4645 72.3377 55.6585C72.4754 55.7966 72.4314 56.3786 72.4314 56.5755V61.875C72.408 62.3423 72.408 62.5392 71.8603 62.551C71.6523 62.5598 71.4384 62.5598 71.2334 62.5598V63.1682H75.7151V62.5598H75.431C75.2376 62.551 75.0326 62.5598 74.8393 62.5275C74.5991 62.5187 74.5317 62.4481 74.476 62.2189C74.4643 62.0925 74.4643 61.9573 74.4643 61.8309V59.1944H74.8305C75.0004 59.1944 75.1732 59.1944 75.3431 59.2061C76.4298 59.2737 76.4826 59.9615 76.5529 60.9256L76.5997 61.6134C76.632 62.0602 76.714 62.4922 77.0333 62.8273C77.3877 63.18 77.8329 63.3387 78.3338 63.3387C79.2595 63.3387 80.0797 62.9596 80.2642 61.9749C80.3228 61.7574 80.3316 61.5281 80.3316 61.2989H79.7604C79.7252 61.6663 79.6578 62.5951 79.0749 62.3658C79.0281 62.3188 78.9959 62.2747 78.9724 62.2277C78.8582 61.9984 78.8025 61.7368 78.7439 61.4811L78.5623 60.761C78.3338 59.7881 77.7861 59.2502 76.8517 59.0445V59.021C78.0819 58.9299 79.3034 58.3802 79.3034 56.9606C79.3034 56.3521 78.9724 55.7114 78.4715 55.3792C77.8769 55.003 77.2735 54.9325 76.5997 54.9237L75.7444 54.9001H71.2305V54.906Z" fill="black"/>
<path d="M80.519 63.1712V62.5627C80.8266 62.5892 81.1225 62.5422 81.4212 62.5216C81.7054 62.4981 81.7054 62.163 81.7054 61.9455V56.5196C81.7054 55.5585 81.7727 55.535 80.8149 55.5144H80.519V54.9089H85.0154V55.5144H84.286C83.7734 55.5144 83.7383 55.6614 83.7383 56.1317V61.7897C83.7588 62.2218 83.7265 62.4775 84.2392 62.5245C84.4911 62.5569 84.7283 62.5657 84.9802 62.5657C86.6587 62.5657 87.3764 61.6398 87.7074 60.085H88.302L88.1643 63.1741H80.519V63.1712Z" fill="black"/>
<path d="M91.9753 56.1789C91.9753 56.0379 91.9636 55.788 92.0778 55.6851C92.2829 55.5029 92.6578 55.4882 92.8307 55.4882C94.3949 55.4882 94.9866 56.2671 95.2385 57.7456C95.3058 58.1923 95.3293 58.6273 95.3293 59.0741C95.3293 59.3475 95.3176 59.6355 95.2853 59.9088C95.0686 61.5813 94.6468 62.563 92.775 62.563C92.6051 62.563 92.3063 62.5542 92.0896 62.4043C91.9402 62.2073 91.9753 61.887 91.9753 61.6636V56.1789ZM92.8307 63.1714C93.5952 63.1714 94.5647 63.1714 95.2707 62.8892C96.0909 62.563 96.8115 61.8811 97.1776 61.0669C97.4735 60.4115 97.5877 59.6708 97.5877 58.9477C97.5877 57.8602 97.3124 56.8755 96.5713 56.0496C96.2403 55.6969 95.7716 55.4089 95.3146 55.2119C94.7786 54.9709 94.2894 54.9386 93.7065 54.9298L92.6461 54.9062H88.7561V55.5117H89.0285C89.257 55.5117 89.4972 55.4882 89.714 55.5676C89.8956 55.6352 89.9424 55.7616 89.9424 55.935V61.8781C89.9424 62.0163 89.9542 62.1544 89.9073 62.2779C89.8956 62.3367 89.8604 62.4043 89.8165 62.4366C89.7813 62.4836 89.7227 62.5071 89.6788 62.5189C89.38 62.56 89.0607 62.56 88.7561 62.56V63.1685L92.8307 63.1714Z" fill="black"/>
<path d="M108.816 54.7562H109.296L109.398 58.0393L108.816 58.0981C108.496 56.8519 107.732 55.3146 106.25 55.3146C105.588 55.3146 105.107 55.5116 104.709 56.0348C104.31 56.5844 104.252 56.9988 104.126 57.6513C104.047 58.0863 104.032 58.6242 104.032 59.071C104.032 59.6677 104.091 60.2379 104.228 60.8228C104.354 61.3724 104.501 61.7516 104.926 62.1396C105.336 62.507 105.793 62.6451 106.337 62.6451C107.799 62.6451 108.654 61.4988 108.892 60.1615L109.565 60.3202C109.12 62.3835 107.969 63.3417 105.869 63.3417C104.659 63.3417 103.725 62.9743 102.881 62.1072C102.096 61.3019 101.774 60.2291 101.774 59.1298C101.774 57.9364 102.175 56.8048 103.019 55.9583C103.818 55.1589 104.832 54.7327 105.962 54.7327C106.774 54.7327 107.33 54.8355 108.028 55.2823C108.063 55.3146 108.121 55.3499 108.165 55.3734L108.816 54.7562Z" fill="black"/>
<path d="M110.424 54.9062H114.806V55.5117C114.63 55.5117 113.95 55.4765 113.731 55.6264C113.628 55.7968 113.628 56.0143 113.628 56.2201V58.5568H116.686V56.2906C116.686 56.1437 116.698 55.9938 116.675 55.8556C116.654 55.788 116.654 55.7087 116.595 55.6528C116.423 55.4794 115.714 55.5147 115.532 55.5147V54.9092H119.867V55.5147L118.989 55.547C118.658 55.6293 118.716 56.0379 118.716 56.2906V61.5695C118.716 61.787 118.725 62.0163 118.737 62.2309C118.748 62.3896 118.828 62.4601 118.977 62.5071C119.284 62.5395 119.583 62.5747 119.888 62.56V63.1685H115.529V62.56C115.646 62.56 116.168 62.5395 116.39 62.5071C116.765 62.4601 116.686 61.8987 116.686 61.6224V59.2887H113.628V61.8311C113.628 62.128 113.628 62.4954 113.983 62.5277C114.164 62.5395 114.668 62.56 114.806 62.56V63.1685H110.424V62.56H111.176C111.337 62.56 111.54 62.5189 111.554 62.322C111.566 62.1162 111.586 61.931 111.601 61.7253V56.2083C111.601 55.9791 111.645 55.6469 111.361 55.5676C111.065 55.4853 110.734 55.5352 110.424 55.5117V54.9062Z" fill="black"/>
<path d="M122.7 59.941L123.875 57.0929L125.005 59.941H122.7ZM121.537 60.811C121.221 61.5458 120.831 62.4746 119.917 62.5628V63.1712H123.189V62.5628C122.656 62.5746 122.053 62.4305 122.053 61.7751C122.053 61.3754 122.269 60.9962 122.392 60.6552H125.304L125.793 61.9485C125.861 62.1249 125.951 62.2836 125.802 62.4394C125.656 62.601 125.21 62.5569 125.005 62.5658V63.1742H128.998V62.5658C128.236 62.5452 128.145 62.3629 127.873 61.7104L124.973 54.7356H124.118L121.537 60.811Z" fill="black"/>
<path d="M134.051 63.1714H133.479L130.87 55.7645H130.881H130.858V60.917C130.858 61.8546 130.972 62.6012 132.123 62.563V63.1714H128.884V62.563C129.923 62.5424 130.082 62.0369 130.117 61.1198V56.2671C130.117 56.0731 130.164 55.741 129.97 55.6146C129.8 55.5 129.408 55.5235 129.206 55.5117H128.922V54.9062H132.615L134.385 59.9206H134.408L136.095 54.9062H139.78V55.5117H139.429C139.177 55.5117 138.858 55.4765 138.685 55.7057C138.606 55.982 138.629 56.2671 138.629 56.5405V62.0486C138.65 62.1192 138.641 62.1868 138.661 62.2573C138.732 62.613 139.232 62.5542 139.496 62.563H139.792V63.1714H135.454V62.563H136.116C136.195 62.5218 136.297 62.5218 136.376 62.4836C136.473 62.4513 136.538 62.3719 136.549 62.2779C136.608 62.1603 136.596 62.0369 136.596 61.9105V55.6587H136.573L134.051 63.1714Z" fill="black"/>
<path d="M143.465 56.2348C143.465 56.0173 143.445 55.7998 143.615 55.6381C143.796 55.4765 144.218 55.5 144.45 55.5C145.715 55.5 146.192 55.8909 146.192 57.1842C146.192 58.7185 145.484 59.0153 144.092 59.0153C143.919 59.0153 143.749 59.0153 143.58 59.0153H143.465V56.2348ZM144.719 63.1714V62.563H144.356C144.195 62.5542 144.025 62.5747 143.867 62.5307C143.808 62.5218 143.749 62.5218 143.694 62.5101C143.635 62.4836 143.58 62.4513 143.547 62.4072C143.442 62.3161 143.465 62.0516 143.465 61.9281V59.6237L144.64 59.6473C146.228 59.6708 148.36 59.3269 148.36 57.287C148.36 56.5317 148.14 55.9585 147.528 55.5C146.89 55.0297 146.216 54.9592 145.448 54.9298C145.29 54.918 145.129 54.9062 144.971 54.9062H140.249V55.5117C140.565 55.5235 140.908 55.4882 141.216 55.5676C141.274 55.5793 141.321 55.6146 141.353 55.6587C141.4 55.694 141.421 55.7616 141.435 55.8204V61.887C141.435 62.2779 141.435 62.5424 140.955 62.5542C140.715 62.563 140.489 62.563 140.249 62.563V63.1714H144.719Z" fill="black"/>
<path d="M148.952 63.1714V62.563H149.675C150.2 62.5101 150.153 62.2338 150.153 61.787V56.2201C150.153 56.0937 150.153 55.9673 150.129 55.8439C150.071 55.7057 150.082 55.6146 149.924 55.5676C149.731 55.5 149.514 55.5206 149.309 55.5117H148.952V54.9062H153.392V55.5117H153.026C152.786 55.5117 152.478 55.4647 152.297 55.6587C152.238 55.7175 152.229 55.8057 152.203 55.8762C152.171 55.9908 152.183 56.129 152.183 56.2524V61.9751C152.183 62.1574 152.183 62.4248 152.399 62.5042C152.455 62.5248 152.511 62.516 152.569 62.5248C152.739 62.5571 152.935 62.5512 153.117 62.5571H153.392V63.1655H148.952V63.1714Z" fill="black"/>
<path d="M158.481 55.3293C160.297 55.3293 160.499 57.7101 160.499 59.0504C160.499 59.4737 160.475 59.9322 160.408 60.3408C160.226 61.4077 159.986 62.7833 158.618 62.7833C157.783 62.7833 157.168 62.4041 156.837 61.6252C156.541 60.9168 156.407 59.8999 156.407 59.1327C156.407 57.7101 156.541 55.3293 158.481 55.3293ZM158.343 63.3417C159.553 63.3417 160.534 63.0213 161.424 62.1748C162.245 61.4077 162.757 60.1497 162.757 59.0387C162.757 57.8924 162.315 56.8048 161.527 55.9818C160.657 55.1001 159.632 54.7327 158.41 54.7327C157.341 54.7327 156.19 55.1794 155.425 55.9348C154.567 56.7696 154.148 57.8924 154.148 59.071C154.148 60.1468 154.614 61.2813 155.343 62.069C156.12 62.9067 157.203 63.3417 158.343 63.3417Z" fill="black"/>
<path d="M165.382 56.84V61.099C165.382 62.0631 165.622 62.5422 166.674 62.5627V63.1712H163.384V62.5627C164.445 62.5216 164.606 62.2335 164.641 61.2371V56.1434C164.354 55.7319 163.909 55.5144 163.419 55.5144V54.9089H166.305L170.742 60.1761V56.8547C170.742 55.9142 170.447 55.5262 169.474 55.5144V54.9089H172.705V55.5144C172.134 55.5938 171.689 55.6849 171.551 56.3257C171.484 56.646 171.484 56.9782 171.484 57.3103V63.2623H170.778L165.382 56.84Z" fill="black"/>
<path d="M72.3467 93.2016C72.3467 92.9694 72.3584 92.6725 72.5751 92.5461C72.8388 92.455 73.1346 92.4667 73.407 92.4667C74.4469 92.4667 75.0152 92.7989 75.0152 93.9099C75.0152 95.1473 74.3766 95.5118 73.2576 95.5471C72.9501 95.5559 72.6542 95.5794 72.3437 95.5676V93.2016H72.3467ZM69.1187 91.8848V92.4902H69.4848C69.7455 92.502 70.0326 92.4432 70.2259 92.6402C70.3636 92.7783 70.3167 93.3603 70.3167 93.5543V98.8567C70.2933 99.3269 70.2933 99.5239 69.7455 99.5327C69.5405 99.5444 69.3237 99.5444 69.1187 99.5444V100.153H73.6033V99.5444H73.3162C73.1229 99.5327 72.9149 99.5444 72.7245 99.5121C72.4843 99.5004 72.417 99.4327 72.3584 99.2005C72.3467 99.08 72.3467 98.9419 72.3467 98.8184V96.179H72.7128C72.8827 96.179 73.0555 96.179 73.2284 96.1966C74.3122 96.2642 74.3678 96.9461 74.4381 97.9102L74.485 98.598C74.5172 99.0448 74.5992 99.4827 74.9185 99.8119C75.273 100.168 75.7182 100.329 76.2191 100.329C77.1447 100.329 77.9649 99.9501 78.1465 98.9654C78.2051 98.7479 78.2139 98.5186 78.2139 98.2894H77.6427C77.6105 98.6568 77.5402 99.5827 76.9573 99.3534C76.9104 99.3064 76.8782 99.2652 76.8547 99.2211C76.7405 98.9889 76.6848 98.7244 76.6292 98.4746L76.4446 97.7544C76.2162 96.7786 75.6713 96.2466 74.734 96.0379V96.0115C75.9672 95.9233 77.1887 95.3737 77.1887 93.9511C77.1887 93.3456 76.8577 92.7019 76.3568 92.3727C75.7651 91.9965 75.1587 91.9259 74.485 91.9142L73.6297 91.8936H69.1187V91.8848Z" fill="black"/>
<path d="M80.7652 96.9198L81.9398 94.0687L83.0705 96.9198H80.7652ZM79.6023 97.7927C79.283 98.5275 78.8963 99.4504 77.9824 99.5445V100.153H81.2573V99.5445C80.7212 99.5563 80.1178 99.4064 80.1178 98.7568C80.1178 98.3512 80.3346 97.9779 80.4605 97.6311H83.3693L83.8614 98.9273C83.9287 99.0977 84.0195 99.2594 83.8731 99.4181C83.7266 99.5768 83.2784 99.5298 83.0763 99.5445V100.153H87.0689V99.5445C86.3043 99.5239 86.2135 99.3417 85.9411 98.6862L83.0441 91.7173H82.1888L79.6023 97.7927Z" fill="black"/>
<path d="M94.3453 91.7347H94.8228L94.9253 95.0178L94.3424 95.0766C94.0231 93.8304 93.2586 92.2961 91.7764 92.2961C91.1144 92.2961 90.634 92.4872 90.2356 93.0133C89.8373 93.5629 89.7787 93.9774 89.6527 94.6299C89.5736 95.0619 89.5619 95.6057 89.5619 96.0466C89.5619 96.6433 89.6176 97.2193 89.7552 97.8013C89.8812 98.348 90.0306 98.7272 90.4524 99.1181C90.8625 99.4855 91.3194 99.6178 91.8672 99.6178C93.326 99.6178 94.1813 98.4744 94.4215 97.137L95.0952 97.2958C94.65 99.3562 93.4988 100.317 91.3985 100.317C90.1888 100.317 89.2543 99.9499 88.4078 99.0799C87.6198 98.2804 87.3035 97.2047 87.3035 96.1024C87.3035 94.9091 87.7018 93.7804 88.5455 92.931C89.3451 92.1315 90.3587 91.7083 91.4893 91.7083C92.2978 91.7083 92.8602 91.8082 93.5544 92.255C93.5867 92.2932 93.6453 92.3255 93.6892 92.3461L94.3453 91.7347Z" fill="black"/>
<path d="M96.0442 100.15V99.5415H96.7618C97.2862 99.4886 97.2393 99.2123 97.2393 98.7626V93.2016C97.2393 93.0752 97.2393 92.9458 97.2159 92.8224C97.1573 92.6843 97.1719 92.5931 97.0108 92.5461C96.8175 92.4756 96.6007 92.4991 96.3957 92.4873H96.0413V91.8818H100.479V92.4873H100.116C99.8756 92.4873 99.568 92.4403 99.3864 92.6372C99.3308 92.6901 99.319 92.7871 99.2956 92.8547C99.2634 92.9664 99.2722 93.1046 99.2722 93.2339V98.9566C99.2722 99.1388 99.2722 99.4034 99.4889 99.4857C99.5446 99.5062 99.6032 99.4945 99.6588 99.5062C99.8287 99.5386 100.022 99.5268 100.207 99.5386H100.479V100.147H96.0442V100.15Z" fill="black"/>
<path d="M102.968 93.8188V98.0778C102.968 99.036 103.209 99.5209 104.26 99.5415V100.15H100.974V99.5415C102.034 99.4945 102.195 99.2123 102.227 98.2159V93.1193C101.943 92.7078 101.498 92.4903 101.006 92.4903V91.8848H103.894L108.332 97.149V93.8306C108.332 92.8929 108.036 92.502 107.066 92.4873V91.8818H110.297V92.4873C109.726 92.5667 109.281 92.6578 109.143 93.3015C109.076 93.6219 109.076 93.9569 109.076 94.2891V100.241H108.37L102.968 93.8188Z" fill="black"/>
<path d="M118.602 95.0122L118.031 95.0445C117.612 93.8659 117.246 92.7313 115.898 92.3522C115.728 92.3051 115.535 92.2728 115.35 92.2728C113.877 92.2728 113.411 93.3133 113.136 94.5742C113.022 95.1033 112.998 95.6735 112.998 96.2202C112.998 96.9403 113.112 97.9161 113.373 98.5922C113.669 99.3476 114.264 99.7473 115.06 99.7473C115.38 99.7473 115.758 99.6474 116.021 99.4886C116.387 99.2594 116.443 99.083 116.601 98.7097C116.704 98.454 116.739 97.8603 116.739 97.5723C116.739 97.4047 116.751 97.2107 116.648 97.0608C116.525 96.9344 116.361 96.9433 116.191 96.9433H115.552V96.3378H119.615V96.9433C119.387 96.955 119.158 96.9433 118.93 96.9815C118.883 97.005 118.827 97.005 118.783 97.0285C118.59 97.1079 118.602 97.3577 118.602 97.534V100.326H118.031L117.462 99.1918C116.765 99.9472 115.854 100.326 114.838 100.326C113.675 100.326 112.579 99.9707 111.783 99.0801C111.053 98.263 110.743 97.2342 110.743 96.1467C110.743 94.7623 111.235 93.5249 112.351 92.6667C112.957 92.1993 113.458 91.9583 114.211 91.8084C114.51 91.7555 114.806 91.7202 115.113 91.7202C115.409 91.7202 115.681 91.7525 115.98 91.7996C116.411 91.8789 116.777 91.9965 117.155 92.2346C117.383 92.3727 117.304 92.3815 117.462 92.2463L118.01 91.7643H118.499L118.602 95.0122Z" fill="black"/>
<path d="M123.042 94.9857L123.227 91.8848H130.767L130.937 94.9857H130.369C130.207 93.9187 129.683 92.4432 128.394 92.4432C128.257 92.4432 128.016 92.4902 128.005 92.6607C127.996 92.8224 127.996 92.9929 127.996 93.1575V98.9478C127.996 99.3593 127.996 99.4651 128.426 99.5239C128.713 99.5562 129.009 99.5327 129.293 99.5444V100.153H124.683V99.5444C125.026 99.5444 125.357 99.5121 125.688 99.4768C125.778 99.4651 125.904 99.3475 125.916 99.2476C125.969 99.1094 125.963 98.9478 125.963 98.8126V93.1428C125.963 92.9811 125.963 92.8077 125.951 92.6519C125.939 92.4755 125.702 92.4315 125.562 92.4315C124.284 92.4315 123.745 93.9687 123.599 94.9857H123.042Z" fill="black"/>
<path d="M139.048 100.15H131.289V99.5415C131.596 99.5092 132.361 99.6679 132.463 99.2447C132.51 99.1183 132.501 98.9772 132.501 98.839V92.9899C132.501 92.9106 132.513 92.8077 132.463 92.7401C132.419 92.6225 132.372 92.5637 132.246 92.5432C131.939 92.4726 131.608 92.4844 131.289 92.4844V91.8789H138.969L139.048 94.8564H138.48C137.991 93.1839 137.417 92.4726 135.592 92.4726C135.316 92.4726 135.029 92.4844 134.78 92.602C134.701 92.6549 134.619 92.7283 134.599 92.8312C134.52 93.0105 134.531 93.2192 134.531 93.4161V95.5794C135.662 95.6705 136.207 95.018 136.336 93.954H136.919L136.96 97.9396H136.344C136.298 96.8404 135.674 96.1526 134.531 96.1878V98.6921C134.531 99.1917 134.508 99.4328 135.067 99.4916C135.272 99.518 135.477 99.5386 135.682 99.5386C137.487 99.5386 138.125 98.7273 138.603 97.0667L139.174 97.1137L139.048 100.15Z" fill="black"/>
<path d="M142.346 96.9198L143.521 94.0687L144.652 96.9198H142.346ZM141.183 97.7927C140.864 98.5275 140.477 99.4504 139.566 99.5445V100.153H142.838V99.5445C142.302 99.5563 141.699 99.4064 141.699 98.7568C141.699 98.3512 141.916 97.9779 142.042 97.6311H144.95L145.44 98.9273C145.51 99.0977 145.601 99.2594 145.451 99.4181C145.305 99.5768 144.86 99.5298 144.654 99.5445V100.153H148.647V99.5445C147.882 99.5239 147.792 99.3417 147.516 98.6862L144.619 91.7173H143.764L141.183 97.7927Z" fill="black"/>
<path d="M153.7 100.15H153.129L150.516 92.743H150.528H150.501V97.8955C150.501 98.8331 150.615 99.5738 151.767 99.5415V100.15H148.53V99.5415C149.564 99.5209 149.725 99.0154 149.763 98.0983V93.2427C149.763 93.0516 149.804 92.7166 149.611 92.5931C149.441 92.4756 149.054 92.502 148.849 92.4902H148.562V91.8848H152.259L154.025 96.8991H154.048L155.739 91.8848H159.427V92.4902H159.072C158.817 92.4902 158.498 92.4579 158.328 92.6872C158.249 92.9635 158.269 93.2456 158.269 93.5219V99.0271C158.296 99.0977 158.281 99.1653 158.305 99.2358C158.372 99.5885 158.876 99.5327 159.137 99.5444H159.432V100.153H155.097V99.5444H155.759C155.838 99.4974 155.941 99.4974 156.023 99.4651C156.114 99.4327 156.184 99.3475 156.193 99.2593C156.248 99.1418 156.24 99.0183 156.24 98.889V92.6402H156.216L153.7 100.15Z" fill="black"/>
<path d="M201.654 123.149H202.214C202.694 123.149 202.782 123.149 202.914 123.229C203.049 123.305 203.096 123.446 203.096 123.59C203.096 123.693 203.072 123.922 202.823 124.008C202.7 124.052 202.398 124.052 202.179 124.052H201.651V123.149H201.654ZM200.943 126.1H201.654V124.616H201.798C202.278 124.616 202.322 124.687 202.753 125.324L203.266 126.1H204.121L203.69 125.407C203.333 124.837 203.195 124.707 202.899 124.537V124.528C203.037 124.513 203.169 124.472 203.295 124.419C203.64 124.275 203.834 123.931 203.834 123.546C203.834 123.199 203.667 122.794 203.254 122.638C203.145 122.603 202.973 122.55 202.445 122.55H200.943V126.1Z" fill="white"/>
<path d="M202.337 127.823C200.357 127.823 198.746 126.206 198.746 124.219C198.746 122.233 200.357 120.616 202.337 120.616C204.317 120.616 205.928 122.233 205.928 124.219C205.928 126.206 204.317 127.823 202.337 127.823ZM202.337 121.192C200.673 121.192 199.323 122.55 199.323 124.217C199.323 125.886 200.676 127.241 202.337 127.241C203.998 127.241 205.351 125.883 205.351 124.217C205.354 122.55 204.001 121.192 202.337 121.192Z" fill="white"/>
</svg>
