<svg width="24" height="24" viewBox="0 0 24 24" fill="none" xmlns="http://www.w3.org/2000/svg">
<path d="M24 1.09091V6.54545C24 7.14545 23.5091 7.63636 22.9091 7.63636C22.3091 7.63636 21.8182 7.14545 21.8182 6.54545V3.73636L15.4909 10.0636C15.2727 10.2818 15 10.3909 14.7273 10.3909C14.4545 10.3909 14.1818 10.2818 13.9636 10.0636C13.5273 9.62727 13.5273 8.94545 13.9636 8.50909L20.2636 2.18182H17.4545C16.8545 2.18182 16.3636 1.69091 16.3636 1.09091C16.3636 0.490909 16.8545 0 17.4545 0H22.9091C23.2091 0 23.4818 0.109091 23.6727 0.327273C23.8909 0.518182 24 0.790909 24 1.09091ZM22.9091 16.3636C22.3091 16.3636 21.8182 16.8545 21.8182 17.4545V20.2636L15.6 14.1C15.1636 13.6636 14.4545 13.6636 14.0182 14.1C13.5818 14.5364 13.5818 15.2182 13.9909 15.6545L20.1545 21.8182H17.3455C16.7455 21.8182 16.2545 22.3091 16.2545 22.9091C16.2545 23.5091 16.7455 24 17.3455 24H22.8C23.1 24 23.4273 23.8909 23.6182 23.6727C23.8364 23.4545 24 23.1818 24 22.9091V17.4545C24 16.8545 23.5091 16.3636 22.9091 16.3636ZM8.4 14.0455L2.18182 20.2636V17.4545C2.18182 16.8545 1.69091 16.3636 1.09091 16.3636C0.490909 16.3636 0 16.8545 0 17.4545V22.9091C0 23.2091 0.109091 23.4818 0.327273 23.6727C0.545455 23.8909 0.818182 24 1.11818 24H6.57273C7.17273 24 7.66364 23.5091 7.66364 22.9091C7.66364 22.3091 7.17273 21.8182 6.57273 21.8182H3.73636L9.95455 15.6C10.3909 15.1636 10.3636 14.4818 9.95455 14.0455C9.54545 13.6091 8.83636 13.6091 8.4 14.0455ZM3.73636 2.29091H6.54545C7.14545 2.29091 7.63636 1.8 7.63636 1.2C7.63636 0.6 7.14545 0.109091 6.54545 0.109091H1.09091C0.790909 0.109091 0.518182 0.218182 0.327273 0.436364C0.109091 0.627273 0 0.9 0 1.2V6.65455C0 7.25455 0.490909 7.74545 1.09091 7.74545C1.69091 7.74545 2.18182 7.25455 2.18182 6.65455V3.81818L8.48182 10.1182C8.7 10.3364 8.97273 10.4455 9.24545 10.4455C9.51818 10.4455 9.79091 10.3364 10.0091 10.1182C10.4455 9.68182 10.4455 9 10.0091 8.56364L3.73636 2.29091Z" fill="white"/>
</svg>
