<svg width="24" height="24" viewBox="0 0 24 24" fill="none" xmlns="http://www.w3.org/2000/svg">
<path d="M24 0V9.81818H22.5455V2.48291L9.96873 15.0596L8.94036 14.0313L21.5171 1.45455H14.1818V0H24ZM19.6364 22.1818C19.6364 22.3789 19.4698 22.5455 19.2727 22.5455H1.81818C1.62109 22.5455 1.45455 22.3789 1.45455 22.1818V4.72727C1.45455 4.53018 1.62109 4.36364 1.81818 4.36364H13.4545V2.90909H1.81818C0.815636 2.90909 0 3.72473 0 4.72727V22.1818C0 23.1844 0.815636 24 1.81818 24H19.2727C20.2753 24 21.0909 23.1844 21.0909 22.1818V10.5455H19.6364V22.1818Z" fill="white"/>
</svg>
