<svg width="25" height="25" viewBox="0 0 25 25" fill="none" xmlns="http://www.w3.org/2000/svg">
<path d="M22.7174 0.00233295L1.36742 0.040077C0.635419 0.0413711 0.0434678 0.635419 0.0447619 1.36742L0.0825077 22.7184C0.0838 23.4494 0.677847 24.0413 1.40985 24.04L12.9048 24.0197L12.8884 14.7257L9.7604 14.7313L9.754 11.1093L12.882 11.1037L12.8773 8.43274C12.8718 5.33275 14.7618 3.6414 17.5278 3.63651C18.8528 3.63417 19.991 3.73116 20.323 3.77457L20.3288 7.01457L18.4108 7.01896C16.9068 7.02162 16.617 7.73713 16.6189 8.78513L16.623 11.0981L20.21 11.0918L19.7494 14.7146L16.6294 14.7201L16.6458 24.0131L22.7618 24.0023C23.4918 24.001 24.0838 23.407 24.0825 22.675L24.0447 1.32499C24.0434 0.59299 23.4494 0.00103886 22.7174 0.00233295V0.00233295Z" fill="white"/>
</svg>
