<svg width="25" height="26" viewBox="0 0 25 26" fill="none" xmlns="http://www.w3.org/2000/svg">
<path d="M2.08837 2.99652L2.12373 22.9965L22.1237 22.9611L22.0883 2.96116L2.08837 2.99652ZM0.0848389 1.00006L24.0848 0.957632L24.1272 24.9576L0.127268 25L0.0848389 1.00006ZM12.1131 16.9788C14.3222 16.9749 16.1099 15.1809 16.106 12.9718C16.1021 10.7626 14.3081 8.97493 12.099 8.97883C9.88983 8.98274 8.10214 10.7768 8.10604 12.9859C8.10995 15.195 9.90397 16.9827 12.1131 16.9788ZM12.1166 18.9788C8.80294 18.9847 6.1119 16.3031 6.10604 12.9894C6.10019 9.67573 8.78172 6.9847 12.0954 6.97884C15.4091 6.97298 18.1002 9.65452 18.106 12.9682C18.1119 16.2819 15.4303 18.973 12.1166 18.9788ZM18.5972 7.96734C17.7688 7.96881 17.096 7.29842 17.0945 6.47C17.0931 5.64157 17.7635 4.96881 18.5919 4.96735C19.4203 4.96588 20.0931 5.63627 20.0945 6.4647C20.096 7.29312 19.4256 7.96588 18.5972 7.96734Z" fill="white"/>
</svg>
