<svg width="24" height="25" viewBox="0 0 24 25" fill="none" xmlns="http://www.w3.org/2000/svg">
<path d="M21.8039 3.04248H2.19608C0.985412 3.04248 0 4.00863 0 5.19633V19.3502C0 20.5379 0.985412 21.504 2.19608 21.504H21.8039C23.0146 21.504 24 20.5379 24 19.3502V5.19633C24 4.00863 23.0146 3.04248 21.8039 3.04248ZM21.8039 4.27325C22.0326 4.27325 22.2394 4.35663 22.4022 4.48987L12 12.4169L1.5978 4.48987C1.76094 4.35663 1.96769 4.27325 2.19608 4.27325H21.8039ZM21.8039 20.2733H2.19608C1.67718 20.2733 1.2549 19.8591 1.2549 19.3502V5.7871L12 13.9757L22.7451 5.7874V19.3502C22.7451 19.8591 22.3228 20.2733 21.8039 20.2733Z" fill="white"/>
</svg>
