<svg width="24" height="24" viewBox="0 0 24 24" fill="none" xmlns="http://www.w3.org/2000/svg">
<path d="M5.53557 3.14315C9.14119 -0.797687 15.2586 -1.06966 19.1997 2.5357C23.1413 6.14132 23.4127 12.2587 19.8076 16.1998L12.6713 24L5.53557 16.1998C2.15481 12.5044 2.15481 6.83882 5.53557 3.14315ZM6.3926 15.4162L12.6713 22.2794L18.9503 15.4162C22.1226 11.9485 21.8834 6.56529 18.4155 3.393C14.9476 0.220705 9.56515 0.459362 6.3926 3.92705C3.41759 7.17872 3.41759 12.1637 6.3926 15.4162ZM14.795 9.67147C14.795 8.49875 13.8441 7.54776 12.6713 7.54776C11.4986 7.54776 10.5471 8.49875 10.5471 9.67147C10.5471 10.8442 11.4986 11.7952 12.6713 11.7952C13.8441 11.7952 14.795 10.8442 14.795 9.67147Z" fill="white"/>
</svg>
