<svg width="24" height="24" viewBox="0 0 24 24" fill="none" xmlns="http://www.w3.org/2000/svg">
<path fill-rule="evenodd" clip-rule="evenodd" d="M8.57406 8.91673C10.0899 11.2351 12.8541 13.9993 15.0833 15.4259L17.2233 13.3751L24 20.1518L23.1975 21.0435L21.325 22.916C17.4908 26.661 9.46573 19.706 6.87988 17.1201C4.29403 14.5343 -2.66102 6.50921 1.08401 2.67502L3.04569 0.802505L3.8482 0L10.6249 6.77671L8.57406 8.91673ZM9.0199 6.77671L7.14739 8.73839C8.66323 11.5917 12.4974 15.3368 15.3508 16.8526L17.2233 14.9801L22.395 20.1518L20.5225 22.1135C15.7966 26.7502 -2.75018 8.20339 1.97568 3.56669L3.8482 1.60501L9.0199 6.77671Z" fill="white"/>
</svg>
