<svg width="25" height="25" viewBox="0 0 25 25" fill="none" xmlns="http://www.w3.org/2000/svg">
<path fill-rule="evenodd" clip-rule="evenodd" d="M4.41363 5.0982C2.56185 5.10148 1.06335 6.60529 1.06662 8.45707L1.08097 16.5747C1.08425 18.4265 2.58806 19.925 4.43984 19.9217L19.6163 19.8949C21.4681 19.8916 22.9666 18.3878 22.9633 16.536L22.9489 8.41838C22.9457 6.56661 21.4419 5.0681 19.5901 5.07137L4.41363 5.0982ZM0.00779944 8.45894C0.00349193 6.02239 1.97521 4.04369 4.41176 4.03938L19.5882 4.01255C22.0248 4.00824 24.0035 5.97996 24.0078 8.41651L24.0221 16.5341C24.0264 18.9707 22.0547 20.9494 19.6182 20.9537L4.44171 20.9805C2.00516 20.9848 0.0264579 19.0131 0.0221504 16.5766L0.00779944 8.45894Z" fill="white"/>
<path d="M15.1906 11.8626C15.3063 11.9216 15.4035 12.0114 15.4715 12.1222C15.5394 12.2329 15.5755 12.3602 15.5757 12.4901C15.5759 12.6201 15.5403 12.7475 15.4728 12.8585C15.4052 12.9694 15.3083 13.0596 15.1928 13.119L12.9889 14.2594L10.577 15.5025C10.4698 15.5575 10.3503 15.5842 10.2298 15.5799C10.1094 15.5757 9.99203 15.5407 9.88895 15.4782C9.78587 15.4158 9.7005 15.328 9.64097 15.2232C9.58143 15.1184 9.54972 15.0001 9.54884 14.8796L9.54043 10.122C9.54028 10.0012 9.57113 9.88233 9.63005 9.77686C9.68896 9.67138 9.77396 9.58279 9.87692 9.51957C9.97987 9.45634 10.0973 9.4206 10.218 9.41576C10.3388 9.41092 10.4587 9.43715 10.5664 9.49193L12.9827 10.73L15.1906 11.8626Z" fill="white"/>
</svg>
