<svg width="120" height="11" viewBox="0 0 120 11" fill="none" xmlns="http://www.w3.org/2000/svg">
<path d="M7.29407 2.38626H0V0.824219H16.0999V2.38626H8.81374V9.88764H7.29407V2.38626Z" fill="white"/>
<path d="M17.1992 0.838867H18.7181V9.88612H17.1992V0.838867Z" fill="white"/>
<path d="M22.9915 7.00755V9.88748H21.4727V2.75963C21.4727 2.11929 21.6912 1.62044 22.1291 1.26226C22.4876 0.969583 22.8964 0.823242 23.3555 0.823242H32.7463C33.479 0.823242 34.1307 1.05609 34.7007 1.52261C35.402 2.0918 35.7526 2.8898 35.7526 3.91499C35.7526 4.66934 35.5254 5.33878 35.0726 5.92496C34.7243 6.3753 34.2919 6.68415 33.7754 6.85232L35.207 8.41437L36.7338 10.0088L34.6292 10.0492L34.1072 9.48807L32.2872 7.51126L31.8281 7.00675H22.9915V7.00755ZM32.7463 5.4447C33.3265 5.4447 33.7432 5.23287 33.9963 4.81002C34.0859 4.66368 34.1488 4.49551 34.1858 4.30551C34.2015 4.22951 34.2125 4.15674 34.2172 4.08559C34.2274 4.02576 34.233 3.96916 34.233 3.91499C34.233 3.31831 34.027 2.8898 33.6158 2.62946C33.4735 2.54295 33.31 2.47746 33.1252 2.43461C33.0513 2.41844 32.9798 2.40712 32.9114 2.40227C32.8532 2.39661 32.7982 2.39176 32.7455 2.3861H23.3555C23.1975 2.3861 23.0914 2.43784 23.0395 2.54052C23.0183 2.57852 23.0049 2.61895 23.0002 2.66261L22.9923 2.7192V5.4447H32.7463Z" fill="white"/>
<path d="M39.3763 7.00755V9.88748H37.8574V2.75963C37.8574 2.11929 38.076 1.62044 38.5139 1.26226C38.8724 0.969583 39.2812 0.823242 39.7403 0.823242H49.1311C49.8638 0.823242 50.5155 1.05609 51.0855 1.52261C51.7868 2.0918 52.1374 2.8898 52.1374 3.91499C52.1374 4.66934 51.9102 5.33878 51.4573 5.92496C51.1091 6.3753 50.6767 6.68415 50.1602 6.85232L51.5918 8.41437L53.1413 10.0322L51.0147 10.05L50.4927 9.48888L48.6727 7.51207L48.2136 7.00755H39.3763ZM49.1311 5.4447C49.7113 5.4447 50.1279 5.23287 50.3811 4.81002C50.4707 4.66368 50.5336 4.49551 50.5706 4.30551C50.5863 4.22951 50.5973 4.15674 50.602 4.08559C50.6122 4.02576 50.6177 3.96916 50.6177 3.91499C50.6177 3.31831 50.4117 2.8898 50.0006 2.62946C49.8583 2.54295 49.6948 2.47746 49.51 2.43461C49.4361 2.41844 49.3646 2.40712 49.2962 2.40227C49.238 2.39661 49.183 2.39176 49.1303 2.3861H39.7403C39.5823 2.3861 39.4761 2.43784 39.4243 2.54052C39.403 2.57852 39.3897 2.61895 39.3849 2.66261L39.3771 2.7192V5.4447H49.1311Z" fill="white"/>
<path d="M67.8837 4.66351V3.27206C67.8837 3.02789 67.7996 2.81929 67.6305 2.64546C67.4615 2.47163 67.2587 2.38512 67.0213 2.38512H56.9496C56.7122 2.38512 56.5094 2.47163 56.3404 2.64546C56.1713 2.81929 56.0872 3.02789 56.0872 3.27206V3.29631H54.5683V3.27206C54.5683 2.59372 54.8003 2.01644 55.2649 1.53861C55.7083 1.08261 56.2382 0.844095 56.8553 0.822266H67.1164C67.7335 0.844095 68.2634 1.08261 68.7068 1.53861C69.1706 2.01563 69.4033 2.59372 69.4033 3.27206V9.8865H56.7044C56.0448 9.8865 55.4834 9.64799 55.0188 9.17016C54.555 8.69314 54.3223 8.11505 54.3223 7.43671V7.11168C54.3223 6.439 54.5542 5.86415 55.0188 5.38713C55.4827 4.90445 56.0448 4.6627 56.7044 4.6627H67.8837V4.66351ZM67.8837 8.32526V6.22556H56.7044C56.4669 6.22556 56.2641 6.31207 56.0951 6.4859C55.9261 6.65973 55.8419 6.86832 55.8419 7.11249V7.43752C55.8419 7.68169 55.9261 7.89028 56.0951 8.06411C56.2641 8.23794 56.4669 8.32445 56.7044 8.32445H67.8837V8.32526Z" fill="white"/>
<path d="M73.3509 9.88716H71.832V3.2234C71.832 2.54506 72.0639 1.96778 72.5286 1.49076C72.9924 1.01293 73.5537 0.774414 74.2133 0.774414H83.5255C84.1851 0.774414 84.7464 1.01293 85.211 1.49076C85.6749 1.96778 85.9076 2.54586 85.9076 3.2234V9.88716H84.3887V3.2234C84.3887 2.97923 84.3046 2.77063 84.1356 2.5968C83.9665 2.42297 83.7637 2.33646 83.5263 2.33646H74.2133C73.9759 2.33646 73.7731 2.42297 73.6041 2.5968C73.435 2.77063 73.3509 2.97923 73.3509 3.2234V9.88716Z" fill="white"/>
<path d="M90.179 9.88716H88.6602V3.2234C88.6602 2.54506 88.8921 1.96778 89.3567 1.49076C89.8205 1.01373 90.3827 0.774414 91.0423 0.774414H100.354C101.013 0.774414 101.575 1.01293 102.039 1.49076C102.503 1.96778 102.736 2.54586 102.736 3.2234V9.88716H101.217V3.2234C101.217 2.97923 101.132 2.77063 100.964 2.5968C100.795 2.42297 100.592 2.33646 100.354 2.33646H91.0423C90.8048 2.33646 90.602 2.42297 90.433 2.5968C90.2639 2.77063 90.1798 2.97923 90.1798 3.2234V9.88716H90.179Z" fill="white"/>
<path d="M118.481 4.66351V3.27206C118.481 3.02789 118.396 2.81929 118.227 2.64546C118.058 2.47163 117.856 2.38512 117.618 2.38512H107.547C107.309 2.38512 107.106 2.47163 106.937 2.64546C106.768 2.81929 106.684 3.02789 106.684 3.27206V3.29631H105.165V3.27206C105.165 2.59372 105.397 2.01644 105.862 1.53861C106.305 1.08261 106.835 0.844095 107.452 0.822266H117.713C118.33 0.844095 118.86 1.08261 119.304 1.53861C119.768 2.01563 120 2.59372 120 3.27206V9.8865H107.302C106.642 9.8865 106.081 9.64799 105.616 9.17016C105.153 8.69314 104.92 8.11505 104.92 7.43671V7.11168C104.92 6.439 105.152 5.86415 105.616 5.38713C106.08 4.90445 106.642 4.6627 107.302 4.6627H118.481V4.66351ZM118.481 8.32526V6.22556H107.301C107.064 6.22556 106.861 6.31207 106.692 6.4859C106.523 6.65973 106.439 6.86832 106.439 7.11249V7.43752C106.439 7.68169 106.523 7.89028 106.692 8.06411C106.861 8.23794 107.064 8.32445 107.301 8.32445H118.481V8.32526Z" fill="white"/>
</svg>
