<svg width="120" height="10" viewBox="0 0 120 10" fill="none" xmlns="http://www.w3.org/2000/svg">
<g clip-path="url(#clip0)">
<path d="M2.34476 0.202148H7.12648L11.5094 7.54652L13.018 0.202148H15.8619L13.7723 9.86736H8.94727L4.62507 2.59512L3.12943 9.86736H0.242188L2.34476 0.202148Z" fill="white"/>
<path d="M16.9546 0.202148H19.9632L17.8607 9.86736H14.8521L16.9546 0.202148Z" fill="white"/>
<path d="M30.2372 3.47749C30.2502 3.34596 30.2806 3.21444 30.2806 3.11685C30.2936 2.84106 30.1635 2.62468 29.8817 2.51012C29.6303 2.40829 29.5999 2.40829 28.4598 2.40829L27.4107 2.39557L26.3009 2.40829C24.7619 2.40829 24.7619 2.40829 24.3023 2.53982C23.7691 2.70105 23.5046 3.09139 23.2532 4.03331C22.8977 5.43769 22.7633 6.17595 22.7633 6.65539C22.7633 7.21969 23.0885 7.55487 23.7387 7.6567C24.1809 7.7161 24.1809 7.7161 26.6997 7.7161C29.0407 7.75853 29.4395 7.55487 29.6476 6.22262H25.8413L26.2402 4.42789H32.9771L32.6823 5.76015C32.3875 7.1518 32.2964 7.45729 32.032 8.09371C31.5291 9.28171 30.4756 9.88844 28.8803 9.93511C28.5378 9.94784 26.9425 9.94784 25.1043 9.94784C21.9526 9.94784 21.272 9.87571 20.47 9.4387C19.8934 9.12048 19.5986 8.48406 19.5986 7.5676C19.5986 6.9439 19.7764 5.94259 20.2056 4.17756C20.7821 1.75914 21.5235 0.817225 23.1665 0.409911C24.0075 0.202011 25.1607 0.129883 27.7358 0.129883C31.334 0.129883 31.9106 0.189283 32.6649 0.651753C33.1375 0.927539 33.3759 1.41971 33.3759 2.11554C33.3759 2.47618 33.3152 2.87076 33.1851 3.47749H30.2372Z" fill="white"/>
<path d="M34.9889 0.202148H37.9975L37.2258 3.78311H44.0494L44.8211 0.202148H47.8254L45.7402 9.86736H42.7185L43.5335 6.17184H36.7099L35.8949 9.86736H32.8906L34.9889 0.202148Z" fill="white"/>
<path d="M51.6967 2.59512H47.3008L47.821 0.202148H59.6171L59.1012 2.59512H54.7053L53.1186 9.86736H50.1143L51.6967 2.59512Z" fill="white"/>
<path d="M59.6128 0.202148H62.6171L61.8498 3.78311H68.6734L69.4407 0.202148H72.4493L70.3598 9.86736H67.3425L68.1532 6.17184H61.3296L60.5145 9.86736H57.5103L59.6128 0.202148Z" fill="white"/>
<path d="M82.6976 0.202148H78.6702L71.0186 9.86736H74.4217L75.7396 8.14477H82.1036L82.7106 9.86736H85.9967L82.6976 0.202148ZM77.2482 6.12941L80.1962 2.2769L81.4967 6.12941H77.2482Z" fill="white"/>
<path d="M86.9463 0.202148L89.4433 7.5635L92.9028 0.202148H96.5314L98.0877 7.5635L102.648 0.202148H105.696L99.6961 9.86736H95.5256L94.0733 2.95576L90.9953 9.86736H86.9983L83.7339 0.202148H86.9463Z" fill="white"/>
<path d="M106.376 0.202148H109.381L108.596 3.80857H110.178L115.034 0.202148H119.165L112.459 4.98384L117.609 9.86736H113.256L109.602 6.15911H108.093L107.278 9.86736H104.274L106.376 0.202148Z" fill="white"/>
</g>
<defs>
<clipPath id="clip0">
<rect width="118.923" height="9.80947" fill="white" transform="translate(0.242188 0.129883)"/>
</clipPath>
</defs>
</svg>
